<svg xmlns="http://www.w3.org/2000/svg" viewBox="0 0 1366 768"><defs><style>.cls-1{isolation:isolate;}.cls-2{opacity:0.58;}.cls-3{mix-blend-mode:multiply;}.cls-4{fill:#fff;}.cls-5{fill:#fff0ff;}.cls-6{fill:#ffe8ff;}.cls-7{fill:#ffe7ff;}.cls-8{fill:#ffe4ff;}.cls-9{fill:#bebced;}.cls-10{fill:#f69cd9;}.cls-11{fill:#ffe3ff;}.cls-12{fill:#babbec;}.cls-13{fill:#bcbcec;}.cls-14{fill:#bfbced;}.cls-15{fill:#6a80cb;}.cls-16{fill:#ffeffd;}.cls-17{fill:#f69bd8;}.cls-18{fill:#f89dd9;}.cls-19{fill:#ffc9f1;}.cls-20{fill:#bf91d8;}.cls-21{fill:#bc91d8;}.cls-22{fill:#516ec2;}.cls-23{fill:#ffc2e6;}.cls-24{fill:#ffbfe5;}.cls-25{fill:#ffcbf1;}.cls-26{fill:#c391d8;}.cls-27{fill:#c191d8;}.cls-28{fill:#be91d8;}.cls-29{fill:#ffc4e6;}.cls-30{fill:#ffc2e5;}.cls-31{fill:#f69ad8;}.cls-32{fill:#f89eda;}.cls-33{fill:#ffccf2;}.cls-34{fill:#c791d8;}.cls-35{fill:#ffc6e6;}.cls-36{fill:#ffc3e6;}.cls-37{fill:#ffc1e5;}.cls-38{fill:#f99fda;}.cls-39{fill:#bd64bf;}.cls-40{fill:#975dbd;}.cls-41{fill:#fffff9;}.cls-42{fill:#fffffd;}.cls-43{fill:#ffc7e7;}.cls-44{fill:#ffc5e6;}.cls-45{fill:#bf67c1;}.cls-46{fill:#ffffe6;}.cls-47{fill:#fffff2;}.cls-48{fill:#fffff5;}.cls-49{fill:#fffffa;}.cls-50{fill:#ffc9e7;}.cls-51{fill:#ffc7e6;}.cls-52{fill:#ffffeb;}.cls-53{fill:#ffffef;}.cls-54{fill:#fffff6;}.cls-55{fill:#fffffb;}.cls-56{fill:#ffecc8;}.cls-57{fill:#ffcee8;}.cls-58{fill:#ffcce7;}.cls-59{fill:#ffc8e7;}.cls-60{fill:#ffffe7;}.cls-61{fill:#ffffec;}.cls-62{fill:ivory;}.cls-63{fill:#fffff3;}.cls-64{fill:#fffff8;}.cls-65{fill:#fffffc;}.cls-66{fill:#ffecc9;}.cls-67{fill:#ffeece;}.cls-68{fill:#fff1d7;}.cls-69{fill:#fff3db;}.cls-70{fill:#ffcfe8;}.cls-71{fill:#ffcde7;}.cls-72{fill:#ffb9dc;}.cls-73{fill:#fff4e6;}.cls-74{fill:#fffff1;}.cls-75{fill:#fec;}.cls-76{fill:#ffffe4;}.cls-77{fill:#ffffe8;}.cls-78{fill:#ffffed;}.cls-79{fill:#fffff4;}.cls-80{fill:#ffebc7;}.cls-81{fill:#ffedcc;}.cls-82{fill:#ffeed0;}.cls-83{fill:#fff0d5;}.cls-84{fill:#fff2d9;}.cls-85{fill:#ffe3d9;}.cls-86{fill:#ffbcdc;}.cls-87{fill:#fff3e5;}.cls-88{fill:#ffe0b1;}.cls-89{fill:#ffe5bc;}.cls-90{fill:#ffebc6;}.cls-91{fill:#ffedb0;}.cls-92{fill:#ffeeb4;}.cls-93{fill:#fff0b9;}.cls-94{fill:#ffe;}.cls-95{fill:#ffe9c4;}.cls-96{fill:#ffedcd;}.cls-97{fill:#ffefd1;}.cls-98{fill:#ffe2dc;}.cls-99{fill:#ffe2a5;}.cls-100{fill:#ffdcab;}.cls-101{fill:#ffe3b5;}.cls-102{fill:#ffe8c1;}.cls-103{fill:#ffefb4;}.cls-104{fill:#fff1b9;}.cls-105{fill:#fff2bd;}.cls-106{fill:#fff4c2;}.cls-107{fill:#ffe9c5;}.cls-108{fill:#ffe0e1;}.cls-109{fill:#ffe0e0;}.cls-110{fill:#f6d595;}.cls-111{fill:#fcdc9e;}.cls-112{fill:#fff5c2;}.cls-113{fill:#ffe5bb;}.cls-114{fill:#ffebac;}.cls-115{fill:#ffedb1;}.cls-116{fill:#ffefb5;}.cls-117{fill:#fff1ba;}.cls-118{fill:#fff3be;}.cls-119{fill:#fff5c3;}.cls-120{fill:#ffaab7;}.cls-121{fill:#ffb0b9;}.cls-122{fill:#ffb5bb;}.cls-123{fill:#f3d08e;}.cls-124{fill:#f9d797;}.cls-125{fill:#ffcb80;}.cls-126{fill:#fff6c2;}.cls-127{fill:#ffe8a7;}.cls-128{fill:#ffb98b;}.cls-129{fill:#ffb78e;}.cls-130{fill:#fdc87d;}.cls-131{fill:#ffcd83;}.cls-132{fill:#ffe0b0;}.cls-133{fill:#ffbc87;}.cls-134{fill:#ffbb89;}.cls-135{fill:#ffcb7f;}.cls-136{fill:#ffcf85;}.cls-137{fill:#ffe2b5;}.cls-138{fill:#ffe7a4;}.cls-139{fill:#ffe9a9;}.cls-140{fill:#ffbf82;}.cls-141{fill:#ffb43e;}.cls-142{fill:#ffb52b;}.cls-143{fill:#ffba2d;}.cls-144{fill:#ff9437;}.cls-145{fill:#ff955a;}.cls-146{fill:#ffb328;}.cls-147{fill:#ffb72c;}.cls-148{fill:#ff9333;}.cls-149{fill:#ff912b;}.cls-150{fill:#ff932f;}.cls-151{fill:#a3dbff;}.cls-152{fill:#a2dbff;}.cls-153{fill:#c4d1ff;}.cls-154{fill:#bce0ff;}.cls-155{fill:#c5d2ff;}.cls-156{fill:#c2d1ff;}.cls-157{fill:#00b3e6;}.cls-158{fill:#e7e4ff;}.cls-159{fill:#c6d2ff;}.cls-160{fill:#c3d1ff;}.cls-161{fill:#bed0ff;}.cls-162{fill:#0074c3;}.cls-163{fill:#0077c4;}.cls-164{fill:#0078c4;}.cls-165{fill:#e5e1ff;}.cls-166{fill:#ebe6ff;}.cls-167{fill:#c7d2ff;}.cls-168{fill:#97b5f3;}.cls-169{fill:#97b6f4;}.cls-170{fill:#0076c4;}.cls-171{fill:#e2d8ff;}.cls-172{fill:#97b3f3;}.cls-173{fill:#7aa3e9;}.cls-174{fill:#4596c9;}.cls-175{fill:#fffaff;}.cls-176{fill:#e1d7ff;}.cls-177{fill:#e0d5ff;}.cls-178{fill:#8baae6;}.cls-179{fill:#e5daff;}.cls-180{fill:#e3d6ff;}.cls-181{fill:#90ace8;}.cls-182{fill:#fffcff;}.cls-183{fill:#f1ddff;}.cls-184{fill:#9cb0eb;}.cls-185{fill:#96aee9;}.cls-186{fill:#fff6ff;}.cls-187{fill:#fff8ff;}.cls-188{fill:#a1b2ed;}.cls-189{fill:#ffe9ff;}.cls-190{fill:#ffebff;}.cls-191{fill:#ffecff;}.cls-192{fill:#ffedff;}.cls-193{fill:#d2c2f1;}.cls-194{fill:#cdc1f0;}</style></defs><title>gArtboard 1</title><g class="cls-1"><g id="Layer_1" data-name="Layer 1"><g class="cls-2"><g class="cls-3"><path class="cls-4" d="M377.81,692.86a.42.42,0,0,1,.31.07c.16.12.12.33-.07.48l-7.53,5.5a.6.6,0,0,1-.67.06c-.16-.11-.12-.33.07-.48l7.53-5.5A.68.68,0,0,1,377.81,692.86Z"/><path class="cls-4" d="M115.82,503.3a.54.54,0,0,1,.33.06c.14.12.1.34-.1.48l-7.52,5.5a.6.6,0,0,1-.68.06c-.16-.12-.12-.33.09-.49l7.52-5.49A.87.87,0,0,1,115.82,503.3Z"/><path class="cls-4" d="M86,470a1.51,1.51,0,0,1,1,.21c.47.36.36,1-.26,1.46L64.2,488.18a1.83,1.83,0,0,1-2,.18c-.51-.34-.39-1,.24-1.46L85,470.43A2.2,2.2,0,0,1,86,470Z"/><path class="cls-4" d="M47.64,443.72a1.3,1.3,0,0,1,.86.2c.45.32.35.92-.23,1.35L27.63,460.37a1.72,1.72,0,0,1-1.83.16c-.44-.33-.36-.93.22-1.34l20.67-15.11A1.9,1.9,0,0,1,47.64,443.72Z"/><path class="cls-5" d="M1.14,427.62l32-23.39c1.72-1.25,2-3,.67-4a3.86,3.86,0,0,0-2.62-.58,6,6,0,0,0-2.89,1.08L1.12,420.59Z"/><path class="cls-4" d="M445.35,670.63a.49.49,0,0,1,.4.09c.21.14.16.4-.1.6l-9.4,6.86a.77.77,0,0,1-.81.08c-.21-.15-.16-.43.11-.61l9.38-6.86A.8.8,0,0,1,445.35,670.63Z"/><path class="cls-4" d="M407,644.31a.51.51,0,0,1,.32.07c.15.12.13.34-.08.48l-7.52,5.5a.6.6,0,0,1-.67.06c-.16-.11-.12-.33.09-.48l7.52-5.5A.64.64,0,0,1,407,644.31Z"/><path class="cls-4" d="M188.13,477.19a1.28,1.28,0,0,1,.8.17c.4.3.3.84-.22,1.23l-18.78,13.72a1.56,1.56,0,0,1-1.68.16c-.4-.29-.3-.84.21-1.21l18.78-13.73A1.88,1.88,0,0,1,188.13,477.19Z"/><path class="cls-4" d="M148.81,451.66a.87.87,0,0,1,.62.14c.33.23.27.67-.16,1l-15,11a1.22,1.22,0,0,1-1.33.12c-.33-.23-.26-.67.16-1l15-11A1.44,1.44,0,0,1,148.81,451.66Z"/><path class="cls-4" d="M116.13,420.71a1.55,1.55,0,0,1,1,.23c.53.38.41,1.09-.27,1.59L92.49,440.36a2,2,0,0,1-2.17.21c-.52-.38-.41-1.09.27-1.58L115,421.13A2.38,2.38,0,0,1,116.13,420.71Z"/><path class="cls-4" d="M77.76,394.4a1.38,1.38,0,0,1,.94.21c.52.34.4,1-.23,1.45L55.91,412.55a1.81,1.81,0,0,1-2,.18c-.49-.35-.4-1,.24-1.45L76.71,394.8A2,2,0,0,1,77.76,394.4Z"/><path class="cls-5" d="M1.07,400.44,62.3,355.69c1.71-1.25,2-3,.67-4a3.82,3.82,0,0,0-2.62-.58,5.85,5.85,0,0,0-2.9,1.08L1.06,393.41Z"/><path class="cls-6" d="M.94,347l32-23.42c2.13-1.56,2.5-3.79.85-5a4.88,4.88,0,0,0-3.26-.72,7.54,7.54,0,0,0-3.61,1.36l-26,19Z"/><path class="cls-4" d="M549.38,676.23a.63.63,0,0,1,.38.08c.21.15.16.43-.11.62l-9.39,6.87a.81.81,0,0,1-.83.08c-.21-.15-.16-.43.11-.62l9.4-6.87A.92.92,0,0,1,549.38,676.23Z"/><path class="cls-4" d="M511.93,649.15a.64.64,0,0,1,.41.08c.2.15.16.42-.11.62l-9.39,6.86a.75.75,0,0,1-.83.08c-.2-.15-.16-.41.1-.6l9.39-6.88A1,1,0,0,1,511.93,649.15Z"/><path class="cls-4" d="M474.52,622.08a.6.6,0,0,1,.4.08c.2.15.15.42-.11.62l-9.4,6.86a.76.76,0,0,1-.81.08c-.19-.16-.15-.41.11-.62l9.39-6.86A.83.83,0,0,1,474.52,622.08Z"/><path class="cls-4" d="M255.67,454.95a1.33,1.33,0,0,1,.89.19c.43.32.34.93-.23,1.34l-20.66,15.11a1.71,1.71,0,0,1-1.83.17c-.45-.33-.35-.93.23-1.35l20.65-15.1A1.94,1.94,0,0,1,255.67,454.95Z"/><path class="cls-4" d="M217.3,428.64a1.19,1.19,0,0,1,.8.18c.38.29.3.84-.22,1.22l-18.78,13.73a1.61,1.61,0,0,1-1.69.15c-.4-.3-.3-.85.21-1.23L216.42,429A1.72,1.72,0,0,1,217.3,428.64Z"/><path class="cls-4" d="M178,403.11a.87.87,0,0,1,.63.14c.33.22.26.67-.17,1l-15,11a1.24,1.24,0,0,1-1.33.12c-.33-.23-.26-.67.17-1l15-11A1.23,1.23,0,0,1,178,403.11Z"/><path class="cls-4" d="M145.31,372.16a1.55,1.55,0,0,1,1,.22c.54.39.42,1.1-.27,1.59l-24.41,17.85a2,2,0,0,1-2.18.2c-.52-.38-.4-1.09.28-1.58l24.41-17.86A2.36,2.36,0,0,1,145.31,372.16Z"/><path class="cls-5" d="M126.94,329.62a3.83,3.83,0,0,1,2.62.58c1.34,1,1,2.77-.68,4l-62,45.31c-1.69,1.24-4.19,1.47-5.52.5s-1-2.76.68-4l62-45.31A5.92,5.92,0,0,1,126.94,329.62Z"/><path class="cls-7" d="M97.13,296.36a5,5,0,0,1,3.27.72c1.63,1.21,1.26,3.43-.84,5l-77,56.31c-2.12,1.54-5.2,1.83-6.85.63s-1.28-3.43.83-5l77-56.3A7.68,7.68,0,0,1,97.13,296.36Z"/><path class="cls-6" d="M.87,319.79,62.12,275c2.13-1.55,2.51-3.8.85-5a4.88,4.88,0,0,0-3.27-.72,7.54,7.54,0,0,0-3.59,1.36L.85,311.05Z"/><path class="cls-8" d="M.74,265.64l26-19c2.24-1.63,2.63-4,.89-5.23a5.08,5.08,0,0,0-3.42-.76,7.77,7.77,0,0,0-3.76,1.43L.72,256.49Z"/><path class="cls-4" d="M654.34,681.07a.6.6,0,0,1,.47.11c.26.17.2.49-.11.73l-11.26,8.23a.92.92,0,0,1-1,.1c-.25-.18-.2-.51.12-.74l11.25-8.23A1,1,0,0,1,654.34,681.07Z"/><path class="cls-4" d="M616.92,654a.7.7,0,0,1,.47.1c.25.17.2.5-.11.73L606,663.06a.9.9,0,0,1-1,.09c-.23-.18-.19-.5.12-.73l11.29-8.24A1,1,0,0,1,616.92,654Z"/><path class="cls-4" d="M579.5,626.91a.66.66,0,0,1,.47.1c.25.17.2.5-.12.73L568.58,636a.92.92,0,0,1-1,.09c-.25-.17-.17-.51.13-.72L579,627.1A1,1,0,0,1,579.5,626.91Z"/><path class="cls-4" d="M541.11,600.6a.56.56,0,0,1,.38.09c.21.14.17.42-.1.62L532,608.16a.78.78,0,0,1-.81.08c-.21-.15-.15-.42.1-.61l9.39-6.85A.73.73,0,0,1,541.11,600.6Z"/><path class="cls-4" d="M285.8,405.62a1.54,1.54,0,0,1,1,.21c.47.34.36,1-.24,1.46L264,423.76a1.82,1.82,0,0,1-2,.19c-.49-.34-.38-1,.23-1.46L284.73,406A2.29,2.29,0,0,1,285.8,405.62Z"/><path class="cls-4" d="M247.42,379.31a1.28,1.28,0,0,1,.86.19c.46.32.35.92-.23,1.34L227.41,396a1.68,1.68,0,0,1-1.81.17c-.47-.32-.35-.92.22-1.34l20.64-15.1A2.06,2.06,0,0,1,247.42,379.31Z"/><path class="cls-4" d="M209,353a1.15,1.15,0,0,1,.79.18c.4.29.31.83-.21,1.22l-18.78,13.73a1.58,1.58,0,0,1-1.68.16c-.41-.3-.31-.85.21-1.23l18.78-13.73A2,2,0,0,1,209,353Z"/><path class="cls-4" d="M169.7,327.47a1,1,0,0,1,.63.14c.33.23.26.66-.17,1l-15,11a1.23,1.23,0,0,1-1.33.13c-.32-.24-.25-.67.17-1l15-11A1.52,1.52,0,0,1,169.7,327.47Z"/><path class="cls-5" d="M156.12,281.07a3.94,3.94,0,0,1,2.62.57c1.35,1,1,2.78-.68,4L96.08,331c-1.69,1.24-4.19,1.48-5.5.51s-1-2.76.67-4l62-45.31A5.89,5.89,0,0,1,156.12,281.07Z"/><path class="cls-5" d="M118.68,254a3.79,3.79,0,0,1,2.62.57c1.35,1,1,2.76-.67,4l-62,45.3c-1.69,1.24-4.19,1.47-5.52.51s-1-2.77.68-4l62-45.31A5.92,5.92,0,0,1,118.68,254Z"/><path class="cls-6" d="M88.88,220.72a4.92,4.92,0,0,1,3.26.72c1.65,1.21,1.27,3.44-.84,5l-77,56.29c-2.11,1.55-5.2,1.83-6.86.63s-1.28-3.43.84-5l77-56.3A7.52,7.52,0,0,1,88.88,220.72Z"/><path class="cls-8" d="M.67,238.47,55.9,198.1c2.22-1.63,2.61-4,.88-5.24a5.05,5.05,0,0,0-3.42-.75,7.41,7.41,0,0,0-3.76,1.42L.65,229.31Z"/><path class="cls-8" d="M.54,184.11,18.48,171c2.23-1.62,2.63-4,.88-5.22a5.16,5.16,0,0,0-3.42-.76,7.62,7.62,0,0,0-3.76,1.42L.51,175Z"/><path class="cls-9" d="M.41,134.67,27.61,114.8c4.61-3.37,5.44-8.22,1.82-10.83a10.47,10.47,0,0,0-7.06-1.57,16,16,0,0,0-7.82,2.95L.37,115.71Z"/><path class="cls-4" d="M759.31,685.91a.87.87,0,0,1,.57.13c.28.19.22.58-.15.85l-13.13,9.61a1.12,1.12,0,0,1-1.18.11c-.28-.21-.21-.59.16-.86l13.13-9.61A1.55,1.55,0,0,1,759.31,685.91Z"/><path class="cls-4" d="M354.29,382.6a1.58,1.58,0,0,1,1.11.25c.57.41.43,1.17-.28,1.7l-26.28,19.23a2.19,2.19,0,0,1-2.34.22c-.57-.41-.44-1.18.27-1.7l26.31-19.23A2.53,2.53,0,0,1,354.29,382.6Z"/><path class="cls-4" d="M315,357.07a1.37,1.37,0,0,1,.94.22c.51.34.4,1-.23,1.45l-22.54,16.49a1.84,1.84,0,0,1-2,.19c-.5-.35-.39-1,.24-1.46l22.54-16.48A2.16,2.16,0,0,1,315,357.07Z"/><path class="cls-4" d="M276.58,330.76a1.31,1.31,0,0,1,.88.2c.45.31.35.92-.22,1.33L256.59,347.4a1.69,1.69,0,0,1-1.84.17c-.46-.32-.35-.92.23-1.34l20.65-15.1A1.92,1.92,0,0,1,276.58,330.76Z"/><path class="cls-4" d="M238.2,304.46a1.16,1.16,0,0,1,.8.18c.41.29.3.84-.21,1.22L220,319.57a1.62,1.62,0,0,1-1.69.16c-.38-.29-.31-.84.21-1.22l18.79-13.72A1.66,1.66,0,0,1,238.2,304.46Z"/><path class="cls-4" d="M198.87,278.92a1,1,0,0,1,.63.14c.33.24.25.67-.18,1l-15,11a1.21,1.21,0,0,1-1.33.12c-.33-.23-.25-.66.17-1l15-11A1.38,1.38,0,0,1,198.87,278.92Z"/><path class="cls-5" d="M185.29,232.54a3.89,3.89,0,0,1,2.62.57c1.34,1,1,2.75-.68,4l-62,45.31c-1.67,1.23-4.19,1.47-5.5.51s-1-2.78.68-4l62-45.31A5.86,5.86,0,0,1,185.29,232.54Z"/><path class="cls-10" d="M204.1,159.87a10.86,10.86,0,0,1,7.31,1.6c3.73,2.7,2.88,7.71-1.89,11.2L36.75,299c-4.76,3.47-11.67,4.12-15.38,1.43s-2.88-7.73,1.89-11.21L196,162.9A16.26,16.26,0,0,1,204.1,159.87Z"/><path class="cls-11" d="M120.91,169.86a5.15,5.15,0,0,1,3.5.78c1.78,1.28,1.39,3.68-.9,5.36L40.88,236.4c-2.27,1.67-5.56,2-7.36.68s-1.38-3.69.9-5.36L117,171.32A7.85,7.85,0,0,1,120.91,169.86Z"/><path class="cls-8" d="M.6,210a7.64,7.64,0,0,0,3.71-1.4l80.74-59c2.23-1.62,2.63-4,.89-5.23a5.1,5.1,0,0,0-3.42-.75A7.65,7.65,0,0,0,78.75,145L.58,202.12Z"/><path class="cls-12" d="M.48,162,95.21,92.69c4.66-3.41,5.5-8.33,1.85-11a10.59,10.59,0,0,0-7.15-1.57,16.12,16.12,0,0,0-7.89,3L.43,142.77Z"/><path class="cls-13" d="M.35,107.51,56.78,66.25c4.62-3.38,5.44-8.24,1.81-10.85a10.52,10.52,0,0,0-7.06-1.55,16,16,0,0,0-7.82,2.93L.3,88.53Z"/><path class="cls-14" d="M.21,53.05,18.33,39.8c4.57-3.34,5.37-8.14,1.8-10.72a10.32,10.32,0,0,0-7-1.54,15.73,15.73,0,0,0-7.74,2.91L.16,34.29Z"/><path class="cls-15" d="M0-26,.09,4.67,37.58-22.75"/><path class="cls-4" d="M415.16,365.78a1,1,0,0,1,.66.14c.33.23.26.67-.17,1l-15,11a1.24,1.24,0,0,1-1.34.12c-.33-.23-.26-.67.17-1l15-11A1.32,1.32,0,0,1,415.16,365.78Z"/><path class="cls-4" d="M377.76,338.69a1,1,0,0,1,.63.15c.35.22.27.67-.17,1l-15,11a1.23,1.23,0,0,1-1.33.12c-.33-.22-.26-.67.16-1l15-11A1.36,1.36,0,0,1,377.76,338.69Z"/><path class="cls-4" d="M341.29,310.84a.94.94,0,0,1,.69.16c.37.26.29.76-.18,1.09L324.9,324.45a1.37,1.37,0,0,1-1.5.13c-.36-.26-.27-.74.19-1.08l16.89-12.36A1.68,1.68,0,0,1,341.29,310.84Z"/><path class="cls-4" d="M304.79,283a1.15,1.15,0,0,1,.79.17c.41.3.32.84-.21,1.23l-18.76,13.72a1.59,1.59,0,0,1-1.68.15c-.4-.29-.3-.84.21-1.22l18.78-13.73A1.8,1.8,0,0,1,304.79,283Z"/><path class="cls-4" d="M267.37,255.91a1.28,1.28,0,0,1,.8.16c.38.3.3.86-.21,1.23L249.18,271a1.56,1.56,0,0,1-1.68.16c-.4-.29-.31-.83.21-1.21l18.79-13.74A1.75,1.75,0,0,1,267.37,255.91Z"/><path class="cls-4" d="M230.91,228a1.21,1.21,0,0,1,.85.2c.46.32.35.92-.22,1.34l-20.66,15.1a1.67,1.67,0,0,1-1.83.17c-.46-.32-.36-.92.22-1.33l20.66-15.1A1.93,1.93,0,0,1,230.91,228Z"/><path class="cls-16" d="M214.45,184a3.78,3.78,0,0,1,2.61.58c1.36,1,1.06,2.76-.67,4l-62,45.31c-1.69,1.24-4.19,1.48-5.52.52s-1-2.77.68-4l62-45.31A5.85,5.85,0,0,1,214.45,184Z"/><path class="cls-17" d="M233.27,111.3a10.81,10.81,0,0,1,7.3,1.61c3.73,2.69,2.88,7.71-1.87,11.19L65.91,250.44c-4.74,3.49-11.65,4.13-15.39,1.43s-2.87-7.72,1.9-11.2L225.19,114.34A16.48,16.48,0,0,1,233.27,111.3Z"/><path class="cls-18" d="M194.89,85a10.85,10.85,0,0,1,7.24,1.58c3.67,2.68,2.83,7.64-1.87,11.09L29.38,222.61c-4.73,3.44-11.53,4.08-15.23,1.41S11.31,216.4,16,212.94L186.9,88A16.37,16.37,0,0,1,194.89,85Z"/><path class="cls-19" d="M128.85,81.09a7.33,7.33,0,0,1,4.85,1.07c2.49,1.79,1.91,5.12-1.24,7.43L17.89,173.34c-3.13,2.31-7.72,2.73-10.19.94s-1.9-5.11,1.25-7.42L123.51,83.11A11,11,0,0,1,128.85,81.09Z"/><path class="cls-20" d="M.42,137.12,146.65,30.2c5.79-4.23,6.82-10.34,2.3-13.63a13.19,13.19,0,0,0-8.89-1.94,20,20,0,0,0-9.84,3.68L.36,113.26Z"/><path class="cls-21" d="M.28,82.89l110-80.4c5.86-4.28,6.91-10.45,2.32-13.76a13.29,13.29,0,0,0-9-2A20.13,20.13,0,0,0,93.66-9.5L.22,58.82Z"/><line class="cls-22" x1="0.08" y1="-0.54" x2="0.16" y2="33.55"/><path class="cls-4" d="M567.11,390a2.37,2.37,0,0,1,1.52.33c.74.56.57,1.6-.4,2.31l-35.67,26.09a3,3,0,0,1-3.17.29c-.78-.56-.6-1.58.39-2.31l35.66-26.09A3.6,3.6,0,0,1,567.11,390Z"/><path class="cls-4" d="M528.72,363.66a2,2,0,0,1,1.42.32c.74.53.58,1.5-.36,2.18L496,390.87a2.73,2.73,0,0,1-3,.28c-.73-.51-.57-1.5.38-2.18l33.78-24.71A3.12,3.12,0,0,1,528.72,363.66Z"/><path class="cls-4" d="M491.3,336.58a2.1,2.1,0,0,1,1.42.32c.74.52.59,1.51-.36,2.19l-33.8,24.71a2.74,2.74,0,0,1-3,.27c-.74-.52-.57-1.51.36-2.19l33.8-24.7A3.31,3.31,0,0,1,491.3,336.58Z"/><path class="cls-4" d="M452.92,310.27a2,2,0,0,1,1.36.3c.68.5.52,1.43-.35,2.07L422,336a2.68,2.68,0,0,1-2.85.26c-.68-.5-.52-1.43.34-2.08l31.94-23.35A3.17,3.17,0,0,1,452.92,310.27Z"/><path class="cls-4" d="M414.54,284a1.88,1.88,0,0,1,1.27.28c.64.47.5,1.34-.33,1.95l-30,22a2.43,2.43,0,0,1-2.67.24c-.67-.47-.52-1.35.33-1.95l30-22A3,3,0,0,1,414.54,284Z"/><path class="cls-4" d="M377.11,256.88a1.93,1.93,0,0,1,1.28.28c.64.48.5,1.35-.33,2l-30.05,22a2.51,2.51,0,0,1-2.68.26c-.64-.47-.5-1.36.32-2l30.06-22A3,3,0,0,1,377.11,256.88Z"/><path class="cls-4" d="M338.73,230.58a1.73,1.73,0,0,1,1.19.26c.61.44.46,1.26-.32,1.82l-28.14,20.59a2.32,2.32,0,0,1-2.52.23c-.59-.44-.46-1.26.32-1.82l28.15-20.59A2.51,2.51,0,0,1,338.73,230.58Z"/><path class="cls-4" d="M300.36,204.27a1.66,1.66,0,0,1,1.12.23c.56.42.42,1.18-.29,1.71l-26.32,19.23a2.16,2.16,0,0,1-2.34.22c-.56-.42-.43-1.17.3-1.71l26.31-19.23A2.43,2.43,0,0,1,300.36,204.27Z"/><path class="cls-23" d="M310.59,138.57a7.4,7.4,0,0,1,5.05,1.12c2.61,1.87,2,5.35-1.3,7.78L194.19,235.33c-3.29,2.43-8.1,2.88-10.69,1s-2-5.35,1.31-7.8L305,140.67A11.37,11.37,0,0,1,310.59,138.57Z"/><path class="cls-24" d="M275.08,109.94a7.86,7.86,0,0,1,5.24,1.15c2.67,1.94,2.05,5.54-1.36,8L155,209.74c-3.44,2.5-8.36,2.95-11,1s-2.08-5.54,1.35-8L269.27,112.1A12,12,0,0,1,275.08,109.94Z"/><path class="cls-17" d="M262.44,62.76a10.87,10.87,0,0,1,7.31,1.61c3.71,2.7,2.87,7.72-1.89,11.2L95.09,201.89c-4.76,3.47-11.65,4.12-15.36,1.42s-2.9-7.72,1.9-11.2L254.35,65.8A16.58,16.58,0,0,1,262.44,62.76Z"/><path class="cls-18" d="M224,36.45A10.8,10.8,0,0,1,231.28,38c3.67,2.68,2.83,7.65-1.87,11.08L58.54,174.06c-4.72,3.45-11.52,4.07-15.22,1.42s-2.86-7.64,1.85-11.09L216.05,39.46A16.34,16.34,0,0,1,224,36.45Z"/><path class="cls-25" d="M157.07,33.32a7,7,0,0,1,4.76,1.05c2.45,1.75,1.89,5-1.22,7.3L47.93,124c-3.09,2.28-7.6,2.7-10,.93s-1.89-5,1.22-7.31L151.8,35.3A10.77,10.77,0,0,1,157.07,33.32Z"/><path class="cls-26" d="M.35,109.84,174.81-17.72c5.75-4.21,6.78-10.25,2.26-13.5a13,13,0,0,0-8.81-1.92,19.66,19.66,0,0,0-9.74,3.65L.29,86.2Z"/><line class="cls-27" x1="0.16" y1="31.73" x2="0.22" y2="55.61"/><line class="cls-28" x1="0.02" y1="-22.61" x2="0.08" y2="1.25"/><path class="cls-4" d="M558.85,314.34a2.23,2.23,0,0,1,1.52.33c.78.56.6,1.6-.39,2.31l-35.69,26.09a3,3,0,0,1-3.18.29c-.78-.54-.6-1.59.4-2.31L557.19,315A3.42,3.42,0,0,1,558.85,314.34Z"/><path class="cls-4" d="M520.47,288a2.1,2.1,0,0,1,1.42.32c.74.52.57,1.51-.38,2.2l-33.8,24.71a2.77,2.77,0,0,1-3,.28c-.73-.53-.57-1.51.36-2.19l33.8-24.71A3.24,3.24,0,0,1,520.47,288Z"/><path class="cls-4" d="M483,260.95a2.1,2.1,0,0,1,1.43.33c.74.52.57,1.49-.36,2.18l-33.8,24.71a2.76,2.76,0,0,1-3,.28c-.73-.52-.57-1.49.38-2.19l33.8-24.7A3.2,3.2,0,0,1,483,260.95Z"/><path class="cls-4" d="M444.67,234.64a2.06,2.06,0,0,1,1.35.29c.69.5.52,1.42-.34,2.07l-31.92,23.34a2.68,2.68,0,0,1-2.86.26c-.68-.5-.52-1.42.35-2.07l31.91-23.33A3.22,3.22,0,0,1,444.67,234.64Z"/><path class="cls-4" d="M406.28,208.33a1.88,1.88,0,0,1,1.28.28c.64.47.5,1.34-.33,2l-30.05,22a2.47,2.47,0,0,1-2.69.25c-.64-.47-.5-1.32.33-1.94l30.05-22A2.8,2.8,0,0,1,406.28,208.33Z"/><path class="cls-4" d="M367.87,182a1.75,1.75,0,0,1,1.2.27c.62.43.48,1.26-.3,1.82L340.62,204.7a2.31,2.31,0,0,1-2.51.24c-.61-.44-.47-1.25.32-1.83l28.15-20.58A2.59,2.59,0,0,1,367.87,182Z"/><path class="cls-4" d="M329.52,155.72a1.67,1.67,0,0,1,1.12.24c.56.41.42,1.17-.29,1.71l-26.28,19.22a2.21,2.21,0,0,1-2.36.22c-.56-.41-.41-1.18.29-1.7l26.28-19.23A2.48,2.48,0,0,1,329.52,155.72Z"/><path class="cls-29" d="M337.85,91.55a7.27,7.27,0,0,1,4.92,1.08c2.54,1.82,2,5.19-1.26,7.54L225.08,185.31c-3.19,2.35-7.87,2.78-10.37,1s-2-5.2,1.26-7.55L332.4,93.6A11.17,11.17,0,0,1,337.85,91.55Z"/><path class="cls-30" d="M302.33,62.93A7.54,7.54,0,0,1,307.41,64c2.59,1.88,2,5.35-1.31,7.78L185.94,159.7c-3.31,2.43-8.11,2.88-10.7,1s-2-5.35,1.31-7.79L296.72,65A11.27,11.27,0,0,1,302.33,62.93Z"/><path class="cls-31" d="M292.57,13.43a10.93,10.93,0,0,1,7.36,1.63c3.77,2.73,2.93,7.8-1.9,11.33L123.39,154.06c-4.79,3.53-11.76,4.17-15.54,1.45s-2.92-7.8,1.91-11.34L284.37,16.51A16.86,16.86,0,0,1,292.57,13.43Z"/><path class="cls-10" d="M254.16-12.88a10.82,10.82,0,0,1,7.31,1.62c3.73,2.69,2.88,7.7-1.89,11.19L86.82,126.25c-4.74,3.49-11.65,4.13-15.38,1.42s-2.87-7.71,1.87-11.19L246.1-9.83A16.45,16.45,0,0,1,254.16-12.88Z"/><path class="cls-32" d="M220.14-25.88,51.14,97.68c-4.66,3.42-11.39,4-15,1.4s-2.82-7.54,1.85-11"/><path class="cls-33" d="M151.33-33.32l-110.78,81c-3,2.24-7.5,2.65-9.86.92s-1.86-4.93,1.21-7.17"/><line class="cls-34" x1="0.09" y1="4.78" x2="0.15" y2="28.22"/><path class="cls-4" d="M881.71,487.08a1.51,1.51,0,0,1,1,.22c.54.38.42,1.09-.26,1.59l-24.4,17.84a2.07,2.07,0,0,1-2.2.21c-.51-.38-.4-1.1.27-1.59l24.41-17.84A2.42,2.42,0,0,1,881.71,487.08Z"/><path class="cls-4" d="M844.29,460a1.59,1.59,0,0,1,1,.22c.53.38.41,1.09-.27,1.59l-24.42,17.85a2,2,0,0,1-2.16.2c-.54-.38-.41-1.08.26-1.58l24.42-17.85A2.39,2.39,0,0,1,844.29,460Z"/><path class="cls-4" d="M805.9,433.69a1.48,1.48,0,0,1,1,.21c.48.35.37,1-.24,1.47l-22.55,16.47a1.79,1.79,0,0,1-2,.18c-.51-.35-.38-1,.24-1.45l22.54-16.48A2.09,2.09,0,0,1,805.9,433.69Z"/><path class="cls-4" d="M768.49,406.6a1.5,1.5,0,0,1,1,.21c.48.36.37,1-.26,1.46l-22.54,16.48a1.86,1.86,0,0,1-2,.19c-.48-.35-.37-1,.26-1.46L767.43,407A2.17,2.17,0,0,1,768.49,406.6Z"/><path class="cls-4" d="M588,265.79a2.28,2.28,0,0,1,1.51.33c.75.56.58,1.6-.39,2.31l-35.67,26.08a3,3,0,0,1-3.18.3c-.77-.56-.58-1.6.4-2.32l35.66-26.08A3.53,3.53,0,0,1,588,265.79Z"/><path class="cls-4" d="M549.64,239.48a2.11,2.11,0,0,1,1.41.3c.74.54.57,1.52-.38,2.2L516.9,266.7a2.71,2.71,0,0,1-3,.28c-.75-.52-.58-1.5.35-2.18l33.8-24.73A3.29,3.29,0,0,1,549.64,239.48Z"/><path class="cls-4" d="M511.26,213.16a2,2,0,0,1,1.36.3c.69.5.54,1.44-.34,2.07l-31.94,23.35a2.71,2.71,0,0,1-2.86.26c-.69-.5-.53-1.43.35-2.07l31.94-23.35A3.14,3.14,0,0,1,511.26,213.16Z"/><path class="cls-4" d="M472.87,186.86a1.87,1.87,0,0,1,1.26.28c.67.47.52,1.35-.32,2l-30,22a2.51,2.51,0,0,1-2.69.25c-.64-.47-.5-1.34.34-1.95l30-22A2.83,2.83,0,0,1,472.87,186.86Z"/><path class="cls-4" d="M435.44,159.79a1.89,1.89,0,0,1,1.27.27c.66.47.51,1.35-.33,2l-30,22a2.47,2.47,0,0,1-2.67.25c-.67-.47-.52-1.34.33-1.95l30-22A2.76,2.76,0,0,1,435.44,159.79Z"/><path class="cls-4" d="M397.07,133.47a1.7,1.7,0,0,1,1.19.27c.61.43.47,1.26-.3,1.82l-28.17,20.59a2.31,2.31,0,0,1-2.49.23c-.62-.44-.48-1.26.29-1.82L395.74,134A2.67,2.67,0,0,1,397.07,133.47Z"/><path class="cls-35" d="M403.51,70.86a7.19,7.19,0,0,1,4.83,1.06c2.49,1.8,1.93,5.11-1.25,7.44L292.53,163.1c-3.13,2.29-7.73,2.72-10.18.95s-1.93-5.11,1.24-7.43L398.14,72.86A10.92,10.92,0,0,1,403.51,70.86Z"/><path class="cls-36" d="M368,42.22a7.41,7.41,0,0,1,5,1.11c2.54,1.83,2,5.27-1.29,7.67L253.38,137.5c-3.27,2.39-8,2.82-10.54,1s-2-5.29,1.29-7.68L362.43,44.31A11.27,11.27,0,0,1,368,42.22Z"/><path class="cls-37" d="M332.46,13.6a7.65,7.65,0,0,1,5.16,1.14c2.65,1.91,2,5.44-1.33,7.91L214.23,111.89c-3.39,2.46-8.24,2.93-10.87,1s-2-5.45,1.34-7.93L326.75,15.75A11.61,11.61,0,0,1,332.46,13.6Z"/><path class="cls-17" d="M328.06-32.74c3.73,2.7,2.88,7.71-1.89,11.2L153.44,104.78c-4.77,3.48-11.67,4.13-15.38,1.43s-2.91-7.7,1.89-11.2L312.69-31.3"/><path class="cls-18" d="M116.89,76.95c-4.73,3.44-11.53,4.09-15.24,1.42s-2.85-7.63,1.87-11.08"/><path class="cls-38" d="M81.18,48.39c-4.6,3.39-11.31,4-14.87,1.39S63.51,42.32,68.14,39"/><path class="cls-39" d="M.15,29,.22,58.26c.37-.24.76-.44,1.12-.7"/><line class="cls-40" x1="0.01" y1="-26.77" x2="0.09" y2="5.43"/><path class="cls-4" d="M1203.61,660.58a.7.7,0,0,1,.48.1c.24.17.19.49-.12.73l-11.27,8.24a.9.9,0,0,1-1,.09c-.24-.17-.19-.49.13-.73l11.25-8.25A1.06,1.06,0,0,1,1203.61,660.58Z"/><path class="cls-4" d="M1164.29,635a.52.52,0,0,1,.33.07c.16.12.12.33-.09.49L1157,641.1a.63.63,0,0,1-.67.07c-.17-.12-.12-.34.07-.49l7.52-5.5A1.2,1.2,0,0,1,1164.29,635Z"/><path class="cls-4" d="M939.75,472.55a.47.47,0,0,1,.3.07c.15.13.12.33-.07.49l-7.52,5.49a.58.58,0,0,1-.68.06c-.16-.11-.11-.32.09-.47l7.52-5.5A.75.75,0,0,1,939.75,472.55Z"/><path class="cls-4" d="M911.84,437.75a1.66,1.66,0,0,1,1.11.24c.54.41.42,1.18-.28,1.71l-26.29,19.23a2.18,2.18,0,0,1-2.36.21c-.56-.41-.44-1.17.3-1.71l26.24-19.22A2.79,2.79,0,0,1,911.84,437.75Z"/><path class="cls-4" d="M873.45,411.44a1.61,1.61,0,0,1,1,.23c.54.38.42,1.09-.27,1.58L849.83,431.1a2.1,2.1,0,0,1-2.2.2c-.53-.38-.4-1.09.28-1.58l24.38-17.84A2.45,2.45,0,0,1,873.45,411.44Z"/><path class="cls-4" d="M836,384.36a1.62,1.62,0,0,1,1,.22c.52.39.4,1.1-.28,1.59L812.38,404a2,2,0,0,1-2.17.2c-.53-.38-.42-1.08.27-1.58l24.42-17.85A2.38,2.38,0,0,1,836,384.36Z"/><path class="cls-41" d="M800.5,355.73a1.73,1.73,0,0,1,1.19.27c.62.43.46,1.25-.3,1.82l-28.17,20.59a2.35,2.35,0,0,1-2.52.24c-.62-.45-.47-1.26.3-1.83l28.18-20.58A2.7,2.7,0,0,1,800.5,355.73Z"/><path class="cls-42" d="M761.18,330.2a1.56,1.56,0,0,1,1,.22c.52.38.41,1.09-.29,1.59l-24.4,17.85a2,2,0,0,1-2.17.2c-.53-.38-.41-1.08.27-1.58L760,330.63A2.26,2.26,0,0,1,761.18,330.2Z"/><path class="cls-4" d="M578.8,190.93a2.15,2.15,0,0,1,1.42.32c.74.52.59,1.5-.36,2.19l-33.8,24.7a2.75,2.75,0,0,1-3,.28c-.73-.52-.57-1.49.37-2.18l33.78-24.72A3.33,3.33,0,0,1,578.8,190.93Z"/><path class="cls-4" d="M541.38,163.85a2,2,0,0,1,1.42.32c.73.51.57,1.49-.38,2.18l-33.8,24.72a2.78,2.78,0,0,1-3,.29c-.74-.53-.56-1.52.38-2.2l33.78-24.7A3.14,3.14,0,0,1,541.38,163.85Z"/><path class="cls-4" d="M503,137.54a2.14,2.14,0,0,1,1.36.29c.68.51.54,1.42-.35,2.07l-31.92,23.34a2.67,2.67,0,0,1-2.85.27c-.68-.51-.54-1.43.35-2.07L501.5,138.1A3.11,3.11,0,0,1,503,137.54Z"/><path class="cls-4" d="M464.62,111.23a1.82,1.82,0,0,1,1.26.27c.66.48.51,1.35-.33,2l-30,22a2.47,2.47,0,0,1-2.68.25c-.66-.47-.51-1.34.33-1.94l30-22A2.7,2.7,0,0,1,464.62,111.23Z"/><path class="cls-4" d="M427.19,84.15a1.86,1.86,0,0,1,1.27.28c.66.47.51,1.34-.33,2l-30,22a2.49,2.49,0,0,1-2.69.24c-.64-.47-.5-1.33.33-2l30.05-22A3,3,0,0,1,427.19,84.15Z"/><path class="cls-43" d="M430.77,23.84a6.89,6.89,0,0,1,4.67,1c2.4,1.73,1.85,5-1.19,7.19l-110.78,81c-3.06,2.23-7.52,2.66-9.9.91s-1.85-4.94,1.22-7.18l110.79-81A10.76,10.76,0,0,1,430.77,23.84Z"/><path class="cls-44" d="M395.26-4.78a7.16,7.16,0,0,1,4.82,1.07c2.49,1.78,1.93,5.11-1.25,7.43L284.28,87.46c-3.15,2.31-7.73,2.73-10.19,1s-1.94-5.12,1.24-7.44L389.88-2.76A11,11,0,0,1,395.26-4.78Z"/><path class="cls-36" d="M359.71-33.4a7.43,7.43,0,0,1,5,1.09c2.56,1.84,2,5.29-1.29,7.67L245.13,61.88c-3.27,2.36-8,2.8-10.55,1s-2-5.29,1.3-7.67l118.3-86.52A11.36,11.36,0,0,1,359.71-33.4Z"/><path class="cls-37" d="M205.95,36.28c-3.36,2.46-8.21,2.91-10.84,1s-2-5.46,1.31-7.92"/><path class="cls-10" d="M145.18,29.14c-4.77,3.49-11.64,4.15-15.37,1.43s-2.91-7.71,1.87-11.19"/><path class="cls-32" d="M109.48.58c-4.66,3.42-11.41,4-15,1.4S91.6-5.56,96.27-9"/><path class="cls-45" d="M32.24,7.52C25.2,12.68,15,13.62,9.51,9.64S5.23-1.76,12.29-6.92"/><path class="cls-46" d="M1352.7,687.08a1.71,1.71,0,0,1,1.1.25c.57.41.44,1.18-.28,1.71l-26.27,19.22a2.13,2.13,0,0,1-2.34.21c-.58-.4-.44-1.17.25-1.7l26.29-19.22A2.56,2.56,0,0,1,1352.7,687.08Z"/><path class="cls-4" d="M1269.25,639.89a.55.55,0,0,1,.4.09c.21.16.16.41-.1.61l-9.39,6.86a.78.78,0,0,1-.83.08c-.2-.15-.16-.42.11-.61l9.39-6.86A.79.79,0,0,1,1269.25,639.89Z"/><path class="cls-4" d="M1230.9,613.57a.42.42,0,0,1,.3.07c.16.11.14.33-.07.48l-7.52,5.49a.64.64,0,0,1-.69.07c-.16-.12-.12-.34.07-.49l7.53-5.5A.8.8,0,0,1,1230.9,613.57Z"/><path class="cls-4" d="M1194.4,585.72a.58.58,0,0,1,.38.08c.21.15.16.42-.1.62l-9.38,6.85a.76.76,0,0,1-.83.08c-.21-.14-.16-.41.11-.6l9.36-6.87A1,1,0,0,1,1194.4,585.72Z"/><path class="cls-4" d="M1083.07,503.71a.71.71,0,0,1,.48.1c.25.18.19.5-.12.73l-11.27,8.24a.91.91,0,0,1-1,.09c-.26-.17-.2-.5.12-.73l11.26-8.24A1.13,1.13,0,0,1,1083.07,503.71Z"/><path class="cls-4" d="M1044.7,477.4a.56.56,0,0,1,.38.08c.21.15.16.42-.11.61l-9.39,6.87a.78.78,0,0,1-.83.08c-.2-.15-.15-.42.11-.62l9.4-6.87A.77.77,0,0,1,1044.7,477.4Z"/><path class="cls-4" d="M1007.27,450.32a.56.56,0,0,1,.4.09c.2.15.16.41-.11.61l-9.39,6.86a.76.76,0,0,1-.81.08c-.21-.15-.16-.41.1-.61l9.39-6.86A.92.92,0,0,1,1007.27,450.32Z"/><path class="cls-4" d="M979.36,415.51a1.77,1.77,0,0,1,1.2.26c.61.43.47,1.25-.3,1.82l-28.17,20.59a2.26,2.26,0,0,1-2.49.22c-.61-.43-.46-1.25.29-1.81L978.06,416A2.6,2.6,0,0,1,979.36,415.51Z"/><path class="cls-4" d="M941,389.21a1.63,1.63,0,0,1,1.12.24c.56.41.42,1.18-.28,1.71l-26.28,19.21a2.23,2.23,0,0,1-2.37.22c-.56-.41-.43-1.16.28-1.71l26.28-19.21A2.51,2.51,0,0,1,941,389.21Z"/><path class="cls-47" d="M907.38,359a2.1,2.1,0,0,1,1.42.32c.73.52.57,1.5-.36,2.19l-33.79,24.71a2.78,2.78,0,0,1-3,.28c-.73-.52-.56-1.5.38-2.19l33.8-24.71A3.14,3.14,0,0,1,907.38,359Z"/><path class="cls-48" d="M868,333.51a1.9,1.9,0,0,1,1.27.26c.66.47.5,1.34-.33,2l-30,22a2.47,2.47,0,0,1-2.68.25c-.64-.47-.51-1.35.33-2l30-22A2.88,2.88,0,0,1,868,333.51Z"/><path class="cls-49" d="M828.73,308a1.75,1.75,0,0,1,1.12.24c.56.41.41,1.18-.3,1.7l-26.31,19.23a2.17,2.17,0,0,1-2.34.22c-.54-.42-.41-1.17.3-1.7l26.31-19.23A2.52,2.52,0,0,1,828.73,308Z"/><path class="cls-4" d="M790.32,281.65a1.59,1.59,0,0,1,1,.23c.53.38.41,1.09-.27,1.59L766.7,301.3a2.07,2.07,0,0,1-2.18.21c-.52-.38-.41-1.09.28-1.59l24.4-17.84A2.53,2.53,0,0,1,790.32,281.65Z"/><path class="cls-4" d="M570.54,115.3a2.11,2.11,0,0,1,1.42.32c.74.53.57,1.51-.37,2.2l-33.78,24.7a2.76,2.76,0,0,1-3,.29c-.74-.53-.56-1.51.38-2.19L569,115.9A3.06,3.06,0,0,1,570.54,115.3Z"/><path class="cls-4" d="M532.18,89a1.89,1.89,0,0,1,1.35.3c.68.48.53,1.41-.35,2.06l-31.92,23.33a2.62,2.62,0,0,1-2.86.27c-.69-.5-.55-1.43.35-2.07l31.92-23.33A3.09,3.09,0,0,1,532.18,89Z"/><path class="cls-4" d="M493.78,62.69a1.92,1.92,0,0,1,1.27.27c.64.47.5,1.34-.34,1.95l-30,22a2.45,2.45,0,0,1-2.68.25c-.65-.46-.5-1.34.33-1.95l30-22A2.88,2.88,0,0,1,493.78,62.69Z"/><path class="cls-50" d="M496.4,3.15a6.82,6.82,0,0,1,4.6,1c2.35,1.7,1.84,4.86-1.19,7.07L390.92,90.85c-3,2.22-7.35,2.62-9.69.9s-1.83-4.87,1.19-7L491.3,5.07A10.41,10.41,0,0,1,496.4,3.15Z"/><path class="cls-51" d="M460.87-25.48a7.15,7.15,0,0,1,4.77,1c2.42,1.77,1.88,5-1.23,7.29L351.76,65.25c-3.12,2.28-7.61,2.7-10,.94s-1.88-5,1.23-7.3L455.6-23.5A10.86,10.86,0,0,1,460.87-25.48Z"/><path class="cls-44" d="M313.45,38.91c-3.14,2.32-7.76,2.74-10.19,1s-1.93-5.1,1.24-7.43"/><path class="cls-23" d="M273.42,14.06c-3.3,2.41-8.09,2.87-10.69,1s-2-5.38,1.31-7.8"/><path class="cls-17" d="M211.78,7.66c-4.78,3.5-11.67,4.15-15.39,1.44s-2.91-7.71,1.89-11.19"/><path class="cls-4" d="M1297.49,592.12a.42.42,0,0,1,.31.06c.16.13.12.33-.07.48l-7.52,5.5a.61.61,0,0,1-.68.06c-.16-.12-.12-.34.09-.49l7.52-5.49A.65.65,0,0,1,1297.49,592.12Z"/><path class="cls-4" d="M1260.06,565a.58.58,0,0,1,.31.08c.15.12.13.33-.08.48l-7.5,5.5a.6.6,0,0,1-.67.06c-.16-.11-.12-.33.07-.48l7.5-5.49A.78.78,0,0,1,1260.06,565Z"/><path class="cls-4" d="M1222.61,538a.44.44,0,0,1,.32.07c.16.12.14.32-.07.48l-7.53,5.49a.62.62,0,0,1-.67.06c-.16-.12-.12-.33.09-.49l7.52-5.49A.66.66,0,0,1,1222.61,538Z"/><path class="cls-4" d="M1186.14,510.1a.6.6,0,0,1,.4.08c.2.15.16.42-.11.61l-9.38,6.87a.79.79,0,0,1-.83.08c-.2-.15-.16-.42.11-.62l9.38-6.86A.87.87,0,0,1,1186.14,510.1Z"/><path class="cls-4" d="M1149.67,482.25a.72.72,0,0,1,.48.09c.25.19.2.5-.12.73l-11.27,8.24a.92.92,0,0,1-1,.09c-.25-.17-.19-.5.13-.73l11.27-8.24A1.06,1.06,0,0,1,1149.67,482.25Z"/><path class="cls-4" d="M1112.25,455.15a.64.64,0,0,1,.47.11c.26.17.2.5-.12.72l-11.27,8.24a.92.92,0,0,1-1,.09c-.25-.18-.19-.51.12-.73l11.29-8.24A1,1,0,0,1,1112.25,455.15Z"/><path class="cls-4" d="M1074.81,428.09a.75.75,0,0,1,.49.1c.23.17.17.5-.13.73l-11.26,8.25a.93.93,0,0,1-1,.1c-.25-.19-.19-.51.12-.73l11.25-8.24A1.09,1.09,0,0,1,1074.81,428.09Z"/><path class="cls-4" d="M1046.93,393.27a1.82,1.82,0,0,1,1.27.28c.64.47.5,1.34-.33,1.95l-30,22a2.45,2.45,0,0,1-2.68.24c-.64-.46-.5-1.33.33-1.95l30-22A2.79,2.79,0,0,1,1046.93,393.27Z"/><path class="cls-4" d="M1008.55,367a1.75,1.75,0,0,1,1.2.28c.61.43.46,1.25-.32,1.81l-28.17,20.59a2.31,2.31,0,0,1-2.5.23c-.61-.43-.46-1.25.32-1.83l28.17-20.59A2.66,2.66,0,0,1,1008.55,367Z"/><path class="cls-52" d="M976.83,335.25a2.55,2.55,0,0,1,1.68.37c.84.61.66,1.75-.44,2.55L938.64,367a3.27,3.27,0,0,1-3.51.33c-.85-.62-.67-1.76.44-2.56L975,335.94A3.8,3.8,0,0,1,976.83,335.25Z"/><path class="cls-53" d="M937.5,309.71A2.31,2.31,0,0,1,939,310c.75.55.57,1.59-.39,2.31L903,338.43a3,3,0,0,1-3.18.29c-.75-.56-.57-1.6.39-2.31l35.67-26.08A3.53,3.53,0,0,1,937.5,309.71Z"/><path class="cls-47" d="M899.12,283.4a2.06,2.06,0,0,1,1.43.32c.73.52.57,1.51-.38,2.18l-33.78,24.71a2.75,2.75,0,0,1-3,.29c-.74-.52-.58-1.52.35-2.19L897.54,284A3.26,3.26,0,0,1,899.12,283.4Z"/><path class="cls-54" d="M859.81,257.86a2,2,0,0,1,1.26.27c.64.47.5,1.35-.34,2l-30,22a2.46,2.46,0,0,1-2.68.25c-.64-.47-.5-1.34.33-1.94l30-22A3,3,0,0,1,859.81,257.86Z"/><path class="cls-55" d="M820.45,232.33a1.6,1.6,0,0,1,1.11.24c.56.4.44,1.17-.28,1.7L795,253.49a2.15,2.15,0,0,1-2.33.22c-.57-.41-.44-1.18.28-1.71l26.28-19.21A2.37,2.37,0,0,1,820.45,232.33Z"/><path class="cls-56" d="M806.85,185.94a4.66,4.66,0,0,1,3.1.67c1.58,1.15,1.24,3.26-.8,4.76l-73.24,53.55c-2,1.46-4.92,1.74-6.49.6s-1.23-3.27.8-4.74l73.21-53.55A7,7,0,0,1,806.85,185.94Z"/><path class="cls-4" d="M599.7,66.75a2.17,2.17,0,0,1,1.43.32c.74.52.57,1.5-.36,2.19L567,94a2.75,2.75,0,0,1-3,.28c-.73-.51-.57-1.51.36-2.18l33.8-24.72A3.23,3.23,0,0,1,599.7,66.75Z"/><path class="cls-4" d="M562.29,39.67a2.07,2.07,0,0,1,1.42.32c.73.52.57,1.49-.36,2.19L529.54,66.88a2.75,2.75,0,0,1-3,.27c-.73-.52-.57-1.51.36-2.18l33.8-24.71A3.13,3.13,0,0,1,562.29,39.67Z"/><path class="cls-57" d="M560.15-16a6.58,6.58,0,0,1,4.36,1c2.24,1.62,1.73,4.61-1.14,6.7L460.09,67.16c-2.86,2.08-7,2.46-9.19.85s-1.73-4.61,1.12-6.7l103.3-75.5A9.89,9.89,0,0,1,560.15-16Z"/><path class="cls-58" d="M420.94,41.57c-3,2.16-7.2,2.55-9.54.87s-1.78-4.76,1.17-6.93"/><path class="cls-59" d="M381.78,16c-3,2.23-7.51,2.65-9.87.92s-1.85-4.94,1.22-7.18"/><path class="cls-4" d="M1364.07,570.64a.53.53,0,0,1,.32.07c.16.12.12.33-.09.48l-7.52,5.5a.6.6,0,0,1-.68.07c-.15-.12-.11-.33.08-.48l7.52-5.5A.78.78,0,0,1,1364.07,570.64Z"/><path class="cls-4" d="M1289.23,516.47a.49.49,0,0,1,.32.07c.16.12.11.33-.09.48l-7.53,5.51a.57.57,0,0,1-.65.06c-.17-.12-.14-.34.06-.48l7.53-5.5A1,1,0,0,1,1289.23,516.47Z"/><path class="cls-4" d="M1252.75,488.63a.58.58,0,0,1,.38.08c.21.15.17.42-.1.61l-9.39,6.86a.73.73,0,0,1-.81.08c-.21-.15-.17-.41.1-.61l9.39-6.85A.79.79,0,0,1,1252.75,488.63Z"/><path class="cls-54" d="M1219.13,458.45a1.11,1.11,0,0,1,.72.16c.36.26.27.75-.18,1.09l-16.92,12.36a1.38,1.38,0,0,1-1.51.14c-.36-.27-.29-.76.18-1.1l16.92-12.35A1.68,1.68,0,0,1,1219.13,458.45Z"/><path class="cls-4" d="M1113.53,371.8a1.94,1.94,0,0,1,1.27.28c.63.47.48,1.33-.33,2l-30,22a2.52,2.52,0,0,1-2.69.24c-.66-.47-.51-1.35.32-1.95l30-22A3,3,0,0,1,1113.53,371.8Z"/><path class="cls-4" d="M1076.1,344.72a2,2,0,0,1,1.28.27c.63.47.48,1.34-.35,2l-30,22a2.5,2.5,0,0,1-2.69.25c-.64-.47-.49-1.33.33-2l30.05-22A2.81,2.81,0,0,1,1076.1,344.72Z"/><path class="cls-60" d="M1045.34,312.23a2.74,2.74,0,0,1,1.83.4c.93.68.72,1.93-.49,2.81L1003.52,347a3.58,3.58,0,0,1-3.86.36c-.93-.67-.71-1.92.47-2.79L1043.32,313A4.13,4.13,0,0,1,1045.34,312.23Z"/><path class="cls-61" d="M1006,286.7a2.47,2.47,0,0,1,1.65.35c.85.62.66,1.77-.43,2.57l-39.42,28.82a3.28,3.28,0,0,1-3.52.33c-.85-.62-.66-1.76.43-2.56l39.43-28.83A3.76,3.76,0,0,1,1006,286.7Z"/><path class="cls-62" d="M966.66,261.17a2.18,2.18,0,0,1,1.52.33c.77.54.6,1.59-.4,2.31l-35.67,26.08a2.94,2.94,0,0,1-3.18.3c-.75-.55-.57-1.59.39-2.31L965,261.79A3.27,3.27,0,0,1,966.66,261.17Z"/><path class="cls-63" d="M927.33,235.62a2.08,2.08,0,0,1,1.36.29c.68.5.52,1.43-.34,2.07l-31.91,23.35a2.67,2.67,0,0,1-2.86.27c-.69-.51-.51-1.43.35-2.07l31.91-23.34A3.15,3.15,0,0,1,927.33,235.62Z"/><path class="cls-64" d="M888,210.09a1.71,1.71,0,0,1,1.19.26c.59.44.46,1.26-.32,1.82l-28.15,20.59a2.28,2.28,0,0,1-2.49.24c-.61-.44-.47-1.25.29-1.82l28.15-20.59A2.81,2.81,0,0,1,888,210.09Z"/><path class="cls-65" d="M848.68,184.56a1.46,1.46,0,0,1,1,.22c.52.38.41,1.08-.26,1.58L825,204.2a2,2,0,0,1-2.17.19c-.54-.37-.42-1.09.27-1.57L847.53,185A2.27,2.27,0,0,1,848.68,184.56Z"/><path class="cls-66" d="M836,137.39a4.52,4.52,0,0,1,3.09.68c1.59,1.14,1.24,3.26-.8,4.74L765.1,196.34c-2,1.49-4.93,1.75-6.5.6s-1.23-3.26.79-4.73l73.22-53.55A7,7,0,0,1,836,137.39Z"/><path class="cls-67" d="M796.7,111.85a4.4,4.4,0,0,1,2.94.64c1.48,1.08,1.16,3.1-.75,4.51l-69.48,50.8c-1.92,1.39-4.69,1.65-6.18.58s-1.17-3.11.75-4.5l69.48-50.81A6.49,6.49,0,0,1,796.7,111.85Z"/><path class="cls-68" d="M719.94,59.22a4.17,4.17,0,0,1,2.78.62c1.42,1,1.11,2.92-.72,4.26l-65.71,48.05c-1.81,1.31-4.43,1.56-5.86.54s-1.09-2.93.72-4.27l65.72-48A6.24,6.24,0,0,1,719.94,59.22Z"/><path class="cls-69" d="M680.61,33.69a3.81,3.81,0,0,1,2.61.58c1.35,1,1,2.75-.69,4l-62,45.3c-1.67,1.25-4.18,1.48-5.49.51s-1.06-2.76.67-4L677.7,34.78A6.1,6.1,0,0,1,680.61,33.69Z"/><path class="cls-4" d="M628.88,18.2a2,2,0,0,1,1.42.32c.74.53.58,1.51-.35,2.19L596.13,45.42a2.74,2.74,0,0,1-3,.27c-.74-.54-.58-1.5.36-2.18L627.31,18.8A3,3,0,0,1,628.88,18.2Z"/><path class="cls-70" d="M627.94-28.54,528.42,44.22c-2.75,2-6.72,2.37-8.86.82s-1.66-4.45,1.08-6.45"/><path class="cls-71" d="M489.26,18.61c-2.85,2.09-7,2.47-9.19.87s-1.73-4.62,1.13-6.7"/><path class="cls-72" d="M439.72,1.9C436.15,4.49,431,5,428.19,3s-2.18-5.78,1.4-8.42"/><path class="cls-4" d="M1318.4,467.93a.45.45,0,0,1,.31.07c.16.12.11.33-.09.48l-7.52,5.5a.6.6,0,0,1-.67.06c-.16-.11-.12-.34.09-.49l7.52-5.48A.63.63,0,0,1,1318.4,467.93Z"/><path class="cls-41" d="M1284.77,437.75a.91.91,0,0,1,.62.15c.33.23.26.66-.17,1l-15,11a1.23,1.23,0,0,1-1.32.12c-.35-.24-.27-.67.17-1l15-11A1.37,1.37,0,0,1,1284.77,437.75Z"/><path class="cls-64" d="M1248.29,409.89a1.11,1.11,0,0,1,.73.16c.36.26.27.75-.19,1.09l-16.92,12.37a1.37,1.37,0,0,1-1.49.14c-.36-.27-.27-.76.18-1.1l16.9-12.36A1.78,1.78,0,0,1,1248.29,409.89Z"/><path class="cls-73" d="M1241.39,358.1a4.8,4.8,0,0,1,3.25.71c1.66,1.21,1.28,3.44-.84,5l-77,56.29c-2.12,1.55-5.22,1.84-6.87.64s-1.27-3.44.84-5l77-56.29A7.39,7.39,0,0,1,1241.39,358.1Z"/><path class="cls-74" d="M1196.33,337.2a3.84,3.84,0,0,1,2.61.58c1.35,1,1,2.76-.67,4l-62,45.3c-1.7,1.25-4.19,1.49-5.5.51s-1.06-2.76.67-4l62-45.3A5.83,5.83,0,0,1,1196.33,337.2Z"/><path class="cls-65" d="M1151.26,316.3a2.94,2.94,0,0,1,2,.44c1,.73.78,2.11-.51,3.05l-46.92,34.32a3.91,3.91,0,0,1-4.2.39c-1-.74-.78-2.09.52-3l46.92-34.33A4.6,4.6,0,0,1,1151.26,316.3Z"/><path class="cls-75" d="M1132.91,273.77a5.32,5.32,0,0,1,3.57.79c1.84,1.32,1.42,3.78-.92,5.48l-84.49,61.78c-2.34,1.71-5.7,2-7.54.71s-1.4-3.77.92-5.48l84.49-61.78A8.21,8.21,0,0,1,1132.91,273.77Z"/><path class="cls-76" d="M1075.46,262.9a2.77,2.77,0,0,1,1.89.43c1,.7.78,2-.49,2.93l-45.07,32.94a3.66,3.66,0,0,1-4,.37c-1-.7-.75-2,.5-2.92l45.07-32.95A4.21,4.21,0,0,1,1075.46,262.9Z"/><path class="cls-77" d="M1036.12,237.37a2.53,2.53,0,0,1,1.75.4c.89.63.68,1.83-.45,2.66l-41.31,30.21a3.38,3.38,0,0,1-3.68.34c-.9-.64-.7-1.84.45-2.67l41.31-30.2A3.86,3.86,0,0,1,1036.12,237.37Z"/><path class="cls-78" d="M996.8,211.83a2.47,2.47,0,0,1,1.61.35c.79.59.61,1.67-.41,2.43l-37.57,27.45a3.07,3.07,0,0,1-3.36.31c-.79-.59-.61-1.68.41-2.43L995,212.49A3.71,3.71,0,0,1,996.8,211.83Z"/><path class="cls-74" d="M958.4,185.53a2.35,2.35,0,0,1,1.52.32c.77.56.6,1.61-.39,2.33l-35.67,26.09a3,3,0,0,1-3.18.29c-.77-.55-.58-1.6.4-2.32l35.67-26.09A3.35,3.35,0,0,1,958.4,185.53Z"/><path class="cls-79" d="M918.14,160.75a2,2,0,0,1,1.27.28c.64.47.51,1.35-.33,1.95l-30,22a2.52,2.52,0,0,1-2.69.25c-.64-.47-.5-1.34.32-1.95l30.06-22A2.89,2.89,0,0,1,918.14,160.75Z"/><path class="cls-41" d="M879.74,134.46a1.74,1.74,0,0,1,1.19.27c.61.43.46,1.26-.3,1.81l-28.15,20.59a2.33,2.33,0,0,1-2.52.24c-.59-.44-.46-1.26.32-1.83L878.41,135A2.89,2.89,0,0,1,879.74,134.46Z"/><path class="cls-80" d="M866.15,88a4.72,4.72,0,0,1,3.17.71c1.64,1.17,1.27,3.35-.82,4.86l-75.1,54.92c-2.09,1.53-5.07,1.81-6.69.63s-1.26-3.36.83-4.87l75.09-54.92A7.23,7.23,0,0,1,866.15,88Z"/><path class="cls-81" d="M826.81,62.53a4.39,4.39,0,0,1,3,.66c1.55,1.12,1.19,3.18-.78,4.63L757.72,120c-2,1.44-4.81,1.7-6.38.59s-1.18-3.18.79-4.62l71.35-52.18A6.91,6.91,0,0,1,826.81,62.53Z"/><path class="cls-82" d="M788.44,36.21a4.39,4.39,0,0,1,3,.64c1.48,1.1,1.14,3.1-.77,4.5L721.15,92.17c-1.92,1.4-4.69,1.65-6.2.57s-1.15-3.12.75-4.5L785.2,37.43A6.65,6.65,0,0,1,788.44,36.21Z"/><path class="cls-83" d="M750.06,9.9a4.18,4.18,0,0,1,2.85.63c1.46,1.06,1.13,3-.73,4.39L684.59,64.34c-1.86,1.37-4.59,1.62-6,.57s-1.13-3,.74-4.39l67.58-49.42A6.42,6.42,0,0,1,750.06,9.9Z"/><path class="cls-84" d="M710.73-15.63a3.94,3.94,0,0,1,2.7.59c1.37,1,1.07,2.85-.71,4.14L648.88,35.78c-1.75,1.29-4.33,1.53-5.69.53s-1.06-2.85.69-4.13l63.86-46.69A6,6,0,0,1,710.73-15.63Z"/><path class="cls-85" d="M604.54,14.61c-2.17,1.59-5.31,1.89-7,.65s-1.32-3.52.86-5.11"/><path class="cls-86" d="M546.33,5.28c-3.44,2.5-8.35,3-11,1s-2.08-5.54,1.34-8"/><path class="cls-49" d="M1351.36,416.29a.93.93,0,0,1,.64.13c.33.23.25.67-.17,1l-15,11a1.18,1.18,0,0,1-1.32.12c-.32-.23-.25-.67.17-1l15-11A1.5,1.5,0,0,1,1351.36,416.29Z"/><path class="cls-41" d="M1313.93,389.2a1,1,0,0,1,.63.14c.33.24.26.67-.17,1l-15,11a1.19,1.19,0,0,1-1.32.12c-.33-.23-.27-.66.17-1l15-11A1.54,1.54,0,0,1,1313.93,389.2Z"/><path class="cls-87" d="M1308.92,335.86a5,5,0,0,1,3.33.74c1.69,1.23,1.3,3.53-.85,5.11l-78.84,57.66c-2.19,1.6-5.35,1.89-7.06.65s-1.29-3.53.86-5.12l78.86-57.65A7.62,7.62,0,0,1,1308.92,335.86Z"/><path class="cls-88" d="M1284.85,298a6.58,6.58,0,0,1,4.45,1c2.26,1.64,1.76,4.69-1.14,6.81L1183,382.63c-2.9,2.13-7.08,2.52-9.35.87s-1.76-4.69,1.14-6.82l105.16-76.89A10.07,10.07,0,0,1,1284.85,298Z"/><path class="cls-89" d="M1243.61,274a6,6,0,0,1,4.11.9c2.1,1.53,1.63,4.36-1.07,6.33L1149,352.6c-2.69,2-6.6,2.33-8.69.81s-1.63-4.36,1.07-6.33l97.62-71.4A9.45,9.45,0,0,1,1243.61,274Z"/><path class="cls-90" d="M1201.41,250.76a5.44,5.44,0,0,1,3.73.82c1.89,1.38,1.47,3.94-1,5.73l-88.26,64.51c-2.44,1.78-5.93,2.1-7.86.73s-1.45-3.94,1-5.73l88.26-64.53A8.32,8.32,0,0,1,1201.41,250.76Z"/><path class="cls-91" d="M1159.22,227.53a4.92,4.92,0,0,1,3.33.74c1.69,1.23,1.31,3.52-.86,5.11L1082.84,291c-2.18,1.6-5.33,1.9-7,.66s-1.32-3.53.84-5.1l78.86-57.66A7.62,7.62,0,0,1,1159.22,227.53Z"/><path class="cls-92" d="M1120.84,201.22a4.84,4.84,0,0,1,3.26.71c1.65,1.21,1.27,3.44-.83,5l-77,56.3c-2.12,1.54-5.19,1.83-6.85.64s-1.29-3.44.84-5l77-56.29A7.34,7.34,0,0,1,1120.84,201.22Z"/><path class="cls-93" d="M1081.5,175.69a4.58,4.58,0,0,1,3.1.68c1.58,1.14,1.23,3.26-.8,4.74l-73.24,53.54c-2,1.48-4.93,1.74-6.52.61s-1.23-3.27.8-4.74L1078.07,177A7.08,7.08,0,0,1,1081.5,175.69Z"/><path class="cls-94" d="M1026,163.28a2.33,2.33,0,0,1,1.59.35c.79.58.61,1.68-.4,2.42L989.6,193.53a3.14,3.14,0,0,1-3.36.31c-.8-.6-.62-1.68.41-2.44l37.53-27.46A3.7,3.7,0,0,1,1026,163.28Z"/><path class="cls-47" d="M986.65,137.75a2.07,2.07,0,0,1,1.41.31c.74.54.58,1.52-.37,2.2L953.88,165a2.7,2.7,0,0,1-3,.28c-.74-.53-.57-1.51.36-2.18l33.81-24.72A3.21,3.21,0,0,1,986.65,137.75Z"/><path class="cls-48" d="M947.31,112.21a1.89,1.89,0,0,1,1.27.27c.66.47.5,1.35-.32,2l-30.06,22a2.53,2.53,0,0,1-2.69.25c-.64-.48-.48-1.35.34-2l30-22A2.89,2.89,0,0,1,947.31,112.21Z"/><path class="cls-95" d="M933.69,65.81a4.81,4.81,0,0,1,3.26.72c1.66,1.21,1.28,3.43-.83,5l-77,56.29c-2.13,1.55-5.23,1.84-6.87.64s-1.29-3.44.85-5l77-56.29A7.38,7.38,0,0,1,933.69,65.81Z"/><path class="cls-56" d="M894.37,40.28a4.57,4.57,0,0,1,3.09.67c1.58,1.15,1.23,3.27-.8,4.75L823.43,99.25c-2,1.47-4.93,1.75-6.5.6s-1.23-3.27.8-4.75l73.21-53.54A6.9,6.9,0,0,1,894.37,40.28Z"/><path class="cls-96" d="M856,14a4.55,4.55,0,0,1,3,.66c1.52,1.11,1.18,3.2-.79,4.61L786.87,71.44c-2,1.43-4.81,1.7-6.36.59s-1.19-3.19.77-4.63l71.35-52.17A6.87,6.87,0,0,1,856,14Z"/><path class="cls-97" d="M817.61-12.33a4.46,4.46,0,0,1,3,.65c1.47,1.09,1.13,3.09-.78,4.5L750.3,43.6c-1.92,1.41-4.67,1.66-6.18.57s-1.17-3.1.75-4.48l69.48-50.79A6.76,6.76,0,0,1,817.61-12.33Z"/><path class="cls-98" d="M708.56,20.22c-2.18,1.61-5.33,1.89-7,.66s-1.29-3.53.86-5.11"/><path class="cls-41" d="M1343.1,340.65a.9.9,0,0,1,.62.14c.35.23.27.67-.16,1l-15,11a1.23,1.23,0,0,1-1.33.13c-.33-.24-.25-.68.17-1l15-11A1.4,1.4,0,0,1,1343.1,340.65Z"/><path class="cls-99" d="M1352.38,275.72a6.72,6.72,0,0,1,4.53,1c2.3,1.67,1.79,4.77-1.16,6.93l-107,78.26c-3,2.16-7.21,2.55-9.53.89s-1.78-4.78,1.17-6.93l107-78.26A10.28,10.28,0,0,1,1352.38,275.72Z"/><path class="cls-100" d="M1316.87,247.08a6.93,6.93,0,0,1,4.67,1c2.4,1.74,1.84,4.94-1.22,7.19l-110.78,81c-3,2.24-7.47,2.65-9.86.92s-1.84-4.94,1.22-7.18l110.78-81A10.63,10.63,0,0,1,1316.87,247.08Z"/><path class="cls-101" d="M1274.68,223.87a6.34,6.34,0,0,1,4.29.94c2.19,1.58,1.69,4.53-1.1,6.58l-101.39,74.13c-2.81,2.06-6.84,2.44-9,.85s-1.69-4.53,1.11-6.57l101.4-74.15A9.63,9.63,0,0,1,1274.68,223.87Z"/><path class="cls-102" d="M1232.49,200.65a5.8,5.8,0,0,1,3.88.86c2,1.44,1.54,4.1-1,6l-92,67.27c-2.55,1.86-6.2,2.2-8.19.77s-1.53-4.12,1-6l92-67.27A8.85,8.85,0,0,1,1232.49,200.65Z"/><path class="cls-75" d="M1191.24,176.66a5.26,5.26,0,0,1,3.57.79c1.83,1.32,1.42,3.77-.92,5.47l-84.47,61.78c-2.35,1.71-5.71,2-7.55.7s-1.4-3.78.92-5.47l84.49-61.79A8.3,8.3,0,0,1,1191.24,176.66Z"/><path class="cls-91" d="M1151,151.89a5,5,0,0,1,3.35.74c1.69,1.22,1.31,3.52-.86,5.11l-78.9,57.66c-2.14,1.6-5.32,1.89-7,.65s-1.33-3.52.86-5.11l78.87-57.66A7.61,7.61,0,0,1,1151,151.89Z"/><path class="cls-103" d="M1111.62,126.36a4.65,4.65,0,0,1,3.17.7c1.63,1.17,1.27,3.35-.82,4.87l-75.13,54.91c-2.07,1.54-5,1.81-6.68.63s-1.25-3.36.83-4.86l75.13-54.92A7.1,7.1,0,0,1,1111.62,126.36Z"/><path class="cls-104" d="M1072.29,100.82a4.59,4.59,0,0,1,3,.67c1.52,1.12,1.18,3.19-.77,4.63l-71.38,52.18c-2,1.43-4.81,1.7-6.36.59s-1.18-3.19.77-4.63L1069,102.07A6.84,6.84,0,0,1,1072.29,100.82Z"/><path class="cls-105" d="M1033.91,74.52a4.32,4.32,0,0,1,2.93.64c1.51,1.09,1.18,3.11-.75,4.5l-69.48,50.8c-1.92,1.4-4.67,1.65-6.17.58s-1.17-3.11.74-4.51l69.49-50.79A6.61,6.61,0,0,1,1033.91,74.52Z"/><path class="cls-106" d="M995.55,48.21a4.24,4.24,0,0,1,2.84.62c1.46,1.06,1.13,3-.74,4.39L930,102.65c-1.86,1.36-4.55,1.61-6,.56s-1.13-3,.75-4.38L992.38,49.4A6.41,6.41,0,0,1,995.55,48.21Z"/><path class="cls-54" d="M939,36.57a1.91,1.91,0,0,1,1.28.28c.64.47.5,1.34-.33,2l-30.05,22a2.48,2.48,0,0,1-2.68.24c-.66-.46-.5-1.33.32-1.95l30.06-22A2.8,2.8,0,0,1,939,36.57Z"/><path class="cls-107" d="M925.45-9.82a4.79,4.79,0,0,1,3.25.72c1.66,1.22,1.28,3.43-.85,5l-77,56.29c-2.12,1.55-5.2,1.84-6.85.65s-1.29-3.45.84-5l77-56.29A7.52,7.52,0,0,1,925.45-9.82Z"/><path class="cls-108" d="M892.45-32.47,811.71,26.59c-2.21,1.62-5.45,1.92-7.19.66s-1.34-3.61.88-5.24"/><path class="cls-109" d="M774.29-.5c-2.22,1.62-5.45,1.93-7.19.66s-1.35-3.6.89-5.24"/><path class="cls-110" d="M1330.8,377.47c2.79,2,8,1.54,11.56-1.07l23.71-17.33,0-14.72-33.81,24.72C1328.64,371.68,1328,375.44,1330.8,377.47Z"/><path class="cls-111" d="M1300.61,345.1c2.51,1.82,7.16,1.39,10.34-1l55-40.18,0-13.2-64,46.8C1298.65,339.91,1298.09,343.29,1300.61,345.1Z"/><path class="cls-112" d="M1361.54,243.39a4.29,4.29,0,0,1,2.87.62c1.46,1.07,1.12,3-.74,4.39l-67.61,49.43c-1.85,1.36-4.56,1.62-6,.55s-1.13-3,.74-4.38l67.59-49.43A6.43,6.43,0,0,1,1361.54,243.39Z"/><path class="cls-88" d="M1343.19,200.85a6.63,6.63,0,0,1,4.45,1c2.26,1.63,1.75,4.69-1.16,6.82l-105.14,76.89c-2.91,2.12-7.1,2.51-9.38.86s-1.75-4.69,1.16-6.82l105.15-76.88A9.89,9.89,0,0,1,1343.19,200.85Z"/><path class="cls-113" d="M1301.94,176.86a6.08,6.08,0,0,1,4.14.9c2.09,1.53,1.62,4.35-1.07,6.34l-97.65,71.4c-2.69,2-6.61,2.33-8.7.81S1197,252,1199.73,250l97.66-71.41A9.32,9.32,0,0,1,1301.94,176.86Z"/><path class="cls-90" d="M1259.75,153.64a5.58,5.58,0,0,1,3.73.82c1.89,1.38,1.45,3.94-1,5.72l-88.26,64.53c-2.43,1.77-5.94,2.1-7.86.72s-1.47-3.95,1-5.72l88.26-64.52A8.43,8.43,0,0,1,1259.75,153.64Z"/><path class="cls-114" d="M1218.5,129.66a5,5,0,0,1,3.41.75c1.76,1.25,1.37,3.6-.88,5.22l-80.74,59c-2.22,1.63-5.46,1.93-7.19.67s-1.33-3.61.89-5.24l80.74-59A7.78,7.78,0,0,1,1218.5,129.66Z"/><path class="cls-115" d="M1180.13,103.35a4.93,4.93,0,0,1,3.33.74c1.69,1.23,1.32,3.52-.86,5.11l-78.86,57.66c-2.18,1.6-5.34,1.89-7,.65s-1.32-3.52.85-5.11l78.87-57.65A7.48,7.48,0,0,1,1180.13,103.35Z"/><path class="cls-116" d="M1140.79,77.82a4.68,4.68,0,0,1,3.17.69c1.63,1.19,1.27,3.36-.82,4.87L1068,138.29c-2.08,1.53-5.07,1.8-6.69.64s-1.25-3.36.83-4.87l75.1-54.91A7.21,7.21,0,0,1,1140.79,77.82Z"/><path class="cls-117" d="M1101.45,52.27a4.65,4.65,0,0,1,3,.67c1.52,1.13,1.17,3.18-.79,4.63l-71.35,52.17c-2,1.44-4.81,1.7-6.37.58s-1.18-3.18.78-4.63l71.35-52.17A7,7,0,0,1,1101.45,52.27Z"/><path class="cls-118" d="M1063.08,26a4.27,4.27,0,0,1,2.94.64c1.48,1.09,1.16,3.09-.78,4.5L995.78,81.92c-1.92,1.4-4.69,1.66-6.19.59s-1.17-3.1.77-4.51l69.48-50.79A6.48,6.48,0,0,1,1063.08,26Z"/><path class="cls-119" d="M1023.74.44a4.13,4.13,0,0,1,2.79.61c1.41,1,1.09,2.94-.72,4.26L960.1,53.36c-1.81,1.31-4.43,1.56-5.86.53s-1.09-2.92.71-4.25l65.72-48A6.26,6.26,0,0,1,1023.74.44Z"/><path class="cls-120" d="M886.3,57.33c-4,2.91-9.78,3.45-12.87,1.2S871,52.09,875,49.15"/><path class="cls-121" d="M852.36,27.3c-3.81,2.76-9.26,3.26-12.23,1.13s-2.29-6.11,1.5-8.87"/><path class="cls-122" d="M817.53-2c-3.63,2.66-8.88,3.14-11.74,1.09s-2.17-5.86,1.45-8.51"/><path class="cls-123" d="M1355.84,331.94c2.47,1.78,6.63,1.63,10.16,0l0-15.14-8.62,6.3C1353.56,325.82,1352.89,329.8,1355.84,331.94Z"/><path class="cls-124" d="M1324.62,300.33c2.72,2,7.73,1.5,11.21-1l30-22,0-14.27L1326,292.17C1322.52,294.71,1321.9,298.37,1324.62,300.33Z"/><path class="cls-125" d="M1280,278.53c3,2.17,8.53,1.67,12.38-1.15l73.38-53.66,0-15.77-84.21,61.57C1277.65,272.32,1277,276.36,1280,278.53Z"/><path class="cls-126" d="M1352.34,168.54a4.17,4.17,0,0,1,2.78.61c1.41,1,1.11,2.93-.73,4.25l-65.72,48.06c-1.82,1.32-4.44,1.56-5.86.54s-1.11-2.93.72-4.26l65.73-48.05A6.45,6.45,0,0,1,1352.34,168.54Z"/><path class="cls-101" d="M1333,126.78a6.32,6.32,0,0,1,4.27.93c2.19,1.58,1.69,4.53-1.11,6.58l-101.37,74.13c-2.82,2.06-6.87,2.44-9.06.85s-1.69-4.53,1.11-6.57l101.4-74.14A9.58,9.58,0,0,1,1333,126.78Z"/><path class="cls-102" d="M1290.81,103.55a5.89,5.89,0,0,1,3.9.85c2,1.44,1.54,4.11-1,6l-92,67.28c-2.54,1.85-6.2,2.19-8.19.75s-1.54-4.11,1-6l92-67.28A8.9,8.9,0,0,1,1290.81,103.55Z"/><path class="cls-127" d="M1249.58,79.56a5.32,5.32,0,0,1,3.58.79c1.81,1.31,1.39,3.77-.92,5.47l-84.5,61.78c-2.32,1.69-5.69,2-7.54.71s-1.4-3.79.92-5.49L1245.62,81A8.09,8.09,0,0,1,1249.58,79.56Z"/><path class="cls-114" d="M1210.25,54a5.16,5.16,0,0,1,3.41.76c1.74,1.26,1.35,3.61-.88,5.24L1132,119c-2.22,1.63-5.46,1.94-7.19.67s-1.34-3.61.88-5.22l80.74-59A7.93,7.93,0,0,1,1210.25,54Z"/><path class="cls-115" d="M1171.86,27.73a5,5,0,0,1,3.35.73c1.69,1.23,1.32,3.52-.86,5.12l-78.88,57.65c-2.17,1.6-5.33,1.89-7,.66s-1.3-3.52.88-5.1l78.86-57.67A7.64,7.64,0,0,1,1171.86,27.73Z"/><path class="cls-116" d="M1132.53,2.19a4.61,4.61,0,0,1,3.17.71c1.63,1.16,1.27,3.34-.83,4.85l-75.11,54.91c-2.07,1.53-5,1.8-6.68.62s-1.27-3.35.82-4.86L1129,3.51A6.84,6.84,0,0,1,1132.53,2.19Z"/><path class="cls-117" d="M1093.2-23.35a4.51,4.51,0,0,1,3,.66c1.52,1.12,1.17,3.18-.77,4.62L1024.1,34.11c-2,1.44-4.82,1.7-6.38.58s-1.17-3.18.78-4.62l71.35-52.16A6.93,6.93,0,0,1,1093.2-23.35Z"/><path class="cls-128" d="M955.5,33.65c-3.84,2.8-9.39,3.32-12.38,1.15s-2.31-6.22,1.52-9"/><path class="cls-129" d="M918.07,6.57c-3.83,2.81-9.37,3.32-12.37,1.14s-2.31-6.2,1.52-9"/><path class="cls-130" d="M1344.48,258.57c3.1,2.23,8.77,1.7,12.71-1.18l8.61-6.29,0-16.21L1346,249.32C1342.09,252.2,1341.4,256.34,1344.48,258.57Z"/><path class="cls-131" d="M1311.2,228.47c2.93,2.11,8.31,1.61,12.06-1.12l42.41-31,0-15.34-52.94,38.71C1308.95,222.43,1308.29,226.35,1311.2,228.47Z"/><path class="cls-132" d="M1290.29,189.3c2.28,1.66,6.46,1.27,9.38-.87l65.86-48.16,0-11.93-74.06,54.14C1288.54,184.61,1288,187.66,1290.29,189.3Z"/><path class="cls-113" d="M1257,159.21c2.1,1.53,6,1.17,8.69-.8L1363.33,87a5.69,5.69,0,0,0,2.05-2.66V81.86a3.17,3.17,0,0,0-1-1.2,6.11,6.11,0,0,0-4.12-.88,9.2,9.2,0,0,0-4.55,1.69l-97.66,71.41C1255.37,154.85,1254.88,157.68,1257,159.21Z"/><path class="cls-90" d="M1318.08,56.55a5.55,5.55,0,0,1,3.73.82c1.89,1.38,1.47,3.95-1,5.72l-88.24,64.53c-2.44,1.77-5.94,2.09-7.87.72s-1.47-3.94,1-5.72l88.24-64.51A8.4,8.4,0,0,1,1318.08,56.55Z"/><path class="cls-127" d="M1278.76,31a5.29,5.29,0,0,1,3.57.77c1.83,1.33,1.42,3.79-.92,5.49L1196.92,99c-2.35,1.73-5.7,2-7.54.71s-1.43-3.77.91-5.48l84.5-61.78A8,8,0,0,1,1278.76,31Z"/><path class="cls-114" d="M1239.41,5.48a5.07,5.07,0,0,1,3.41.75c1.76,1.26,1.35,3.59-.88,5.24l-80.74,59c-2.22,1.63-5.44,1.94-7.18.66s-1.34-3.6.89-5.23l80.74-59A7.69,7.69,0,0,1,1239.41,5.48Z"/><path class="cls-115" d="M1201-20.83a5,5,0,0,1,3.33.73c1.69,1.23,1.3,3.52-.85,5.11l-78.87,57.66c-2.18,1.6-5.33,1.9-7,.66s-1.32-3.53.85-5.1l78.87-57.67A7.57,7.57,0,0,1,1201-20.83Z"/><path class="cls-133" d="M1061.26,37.8c-3.73,2.7-9.11,3.21-12,1.12s-2.26-6,1.48-8.77"/><path class="cls-134" d="M1023,11.43c-3.79,2.78-9.25,3.28-12.23,1.14s-2.29-6.11,1.5-8.88"/><path class="cls-135" d="M1338.3,181.42c3,2.18,8.53,1.66,12.36-1.14l14.93-10.92,0-15.78-25.75,18.82C1336,175.23,1335.29,179.26,1338.3,181.42Z"/><path class="cls-136" d="M1305,151.33c2.83,2.05,8.08,1.56,11.71-1.09l48.74-35.63,0-14.92-59,43.13C1302.8,145.46,1302.16,149.28,1305,151.33Z"/><path class="cls-137" d="M1284.09,112.16c2.21,1.6,6.25,1.21,9.06-.83l72.18-52.77,0-11.51-80.1,58.56C1282.4,107.64,1281.9,110.59,1284.09,112.16Z"/><path class="cls-102" d="M1349.13,6.46a5.77,5.77,0,0,1,3.9.85c2,1.44,1.53,4.1-1,6l-92,67.28c-2.55,1.85-6.2,2.18-8.19.77s-1.54-4.11,1-6l92-67.27A8.73,8.73,0,0,1,1349.13,6.46Z"/><path class="cls-138" d="M1308.87-18.32a5.4,5.4,0,0,1,3.66.82c1.87,1.34,1.44,3.85-.94,5.58l-86.4,63.17c-2.38,1.76-5.82,2.07-7.69.71s-1.44-3.85.94-5.6l86.4-63.16A8.29,8.29,0,0,1,1308.87-18.32Z"/><path class="cls-139" d="M1189.51,22.68c-2.28,1.68-5.59,2-7.35.69s-1.39-3.69.9-5.35"/><path class="cls-140" d="M1128.7,15.57c-3.67,2.7-9,3.19-11.88,1.1s-2.21-5.94,1.47-8.64"/><path class="cls-141" d="M1352,144.19c3.26,2.38,9.07,2.06,13.55-.55l0-18.82-11.69,8.54C1349.17,136.74,1348.36,141.6,1352,144.19Z"/><path class="cls-142" d="M1320.76,112.59c3.34,2.43,9.56,1.86,13.86-1.29l30.78-22.5,0-17.68-42.88,31.36C1318.15,105.64,1317.38,110.16,1320.76,112.59Z"/><path class="cls-143" d="M1285.37,84c3.29,2.38,9.36,1.82,13.55-1.26l66.34-48.5,0-17.26L1287,74.14C1282.85,77.21,1282.11,81.62,1285.37,84Z"/><path class="cls-144" d="M1229.37,59.74c-5.22,3.82-6.15,9.31-2.06,12.28s11.63,2.26,16.88-1.57L1365.13-18"/><path class="cls-145" d="M1195,30.74c-5.08,3.73-6,9.05-2,11.93s11.32,2.19,16.43-1.53"/><path class="cls-146" d="M1347.85,65.54c3.47,2.5,9.81,1.9,14.23-1.32l3.25-2.37,0-18.12-15.7,11.47C1345.19,58.42,1344.41,63.05,1347.85,65.54Z"/><path class="cls-147" d="M1313.52,36.2c3.33,2.42,9.46,1.84,13.72-1.27l37.95-27.75,0-17.47-50,36.53C1311,29.33,1310.2,33.81,1313.52,36.2Z"/><path class="cls-148" d="M1257.53,11.81c-5.31,3.87-6.25,9.42-2.1,12.41s11.78,2.29,17.06-1.59"/><path class="cls-149" d="M1358.42,30.6a11.45,11.45,0,0,0,6.84,1.83l0-17.8L1360.54,18C1355.2,22,1354.25,27.58,1358.42,30.6Z"/><path class="cls-150" d="M1324.13-9.65c-5.3,3.86-6.23,9.42-2.08,12.41s11.74,2.29,17-1.59l26-19"/></g><g class="cls-3"><path class="cls-4" d="M98.53,749.2a.5.5,0,0,1,.32.08c.15.12.11.34-.09.48l-7.53,5.5a.66.66,0,0,1-.68.07c-.15-.13-.1-.34.09-.49l7.52-5.5A1.1,1.1,0,0,1,98.53,749.2Z"/><path class="cls-4" d="M63,720.6a.7.7,0,0,1,.48.1c.23.17.17.5-.13.73l-11.29,8.23a.89.89,0,0,1-1,.09c-.25-.18-.2-.5.13-.73l11.26-8.23A1,1,0,0,1,63,720.6Z"/><path class="cls-4" d="M25.56,693.51a.72.72,0,0,1,.48.11c.24.17.19.5-.12.73l-11.26,8.23a.9.9,0,0,1-1,.1c-.26-.17-.2-.5.12-.73L25,693.7A1,1,0,0,1,25.56,693.51Z"/><path class="cls-4" d="M90.27,673.58a.53.53,0,0,1,.32.07c.15.12.11.33-.09.49L83,679.63a.6.6,0,0,1-.67.06c-.15-.12-.11-.33.09-.48l7.52-5.5A.8.8,0,0,1,90.27,673.58Z"/><path class="cls-4" d="M54.75,645a.67.67,0,0,1,.48.11c.24.17.17.5-.12.73L43.83,654a.9.9,0,0,1-1,.09c-.27-.17-.21-.5.12-.73l11.26-8.23A1.06,1.06,0,0,1,54.75,645Z"/><path class="cls-4" d="M18.27,617.11a.75.75,0,0,1,.56.12c.28.2.22.59-.13.85l-13.15,9.6a1.13,1.13,0,0,1-1.18.11c-.29-.21-.22-.59.16-.86l13.13-9.61A1.28,1.28,0,0,1,18.27,617.11Z"/><path class="cls-4" d="M97.26,585.59a2.35,2.35,0,0,1,1.59.35c.79.58.61,1.68-.41,2.43L60.88,615.83a3.07,3.07,0,0,1-3.36.32c-.79-.58-.62-1.68.4-2.42L95.5,586.26A3.46,3.46,0,0,1,97.26,585.59Z"/><path class="cls-4" d="M57.93,560.05a2,2,0,0,1,1.41.32c.75.52.57,1.52-.36,2.18L25.2,587.26a2.74,2.74,0,0,1-3,.28c-.73-.52-.57-1.51.36-2.18l33.78-24.71A3.17,3.17,0,0,1,57.93,560.05Z"/><path class="cls-4" d="M1.45,550.07l19.11-14c.89-.65,1-1.57.34-2.06a2,2,0,0,0-1.35-.3,3.08,3.08,0,0,0-1.51.56L1.44,546.45Z"/><path class="cls-151" d="M1.33,502.13,43.84,471c4-2.93,4.71-7.12,1.59-9.38a9,9,0,0,0-6.11-1.35,13.65,13.65,0,0,0-6.76,2.54L1.29,485.72Z"/><path class="cls-152" d="M1.19,447.78,6.42,444c4-2.92,4.71-7.13,1.59-9.38a9.06,9.06,0,0,0-6.13-1.34c-.23,0-.49.13-.73.17Z"/><path class="cls-4" d="M375.06,737.43a.62.62,0,0,1,.48.1c.25.17.19.5-.12.72l-11.26,8.25a1,1,0,0,1-1,.09c-.24-.17-.17-.5.12-.72l11.27-8.25A.91.91,0,0,1,375.06,737.43Z"/><path class="cls-4" d="M340.5,708a1.1,1.1,0,0,1,.7.17c.37.26.3.75-.18,1.1l-16.89,12.35a1.43,1.43,0,0,1-1.5.15c-.36-.28-.28-.77.18-1.1l16.9-12.36A1.76,1.76,0,0,1,340.5,708Z"/><path class="cls-4" d="M112.12,548.64a.61.61,0,0,1,.41.08c.2.15.15.42-.11.61L103,556.19a.81.81,0,0,1-.84.07c-.2-.15-.15-.41.11-.61l9.4-6.86A.79.79,0,0,1,112.12,548.64Z"/><path class="cls-4" d="M75.66,520.77a.7.7,0,0,1,.47.11c.25.18.19.51-.12.73l-11.29,8.24a.87.87,0,0,1-1,.09c-.27-.17-.22-.5.12-.73L75.13,521A1.07,1.07,0,0,1,75.66,520.77Z"/><path class="cls-4" d="M39.17,492.93a.85.85,0,0,1,.56.12c.29.2.22.59-.13.85L26.44,503.5a1.09,1.09,0,0,1-1.17.1c-.28-.2-.22-.59.15-.86l13.13-9.6A1.42,1.42,0,0,1,39.17,492.93Z"/><path class="cls-151" d="M1.12,420.6l34.46-25.2c4-2.93,4.71-7.12,1.58-9.38a9,9,0,0,0-6.1-1.34,13.9,13.9,0,0,0-6.78,2.53l-23.2,17Z"/><path class="cls-4" d="M251.67,582.87a.35.35,0,0,1,.24,0c.12.09.1.26-.06.37l-5.66,4.12a.45.45,0,0,1-.48.05c-.12-.09-.09-.26.06-.37l5.64-4.11A.48.48,0,0,1,251.67,582.87Z"/><path class="cls-4" d="M218,552.7a.91.91,0,0,1,.56.12c.29.2.22.59-.15.85l-13.12,9.61a1.14,1.14,0,0,1-1.18.12c-.28-.21-.22-.59.15-.86l13.13-9.6A1.18,1.18,0,0,1,218,552.7Z"/><path class="cls-4" d="M181.59,524.84a1,1,0,0,1,.62.13c.33.24.25.67-.17,1l-15,11a1.17,1.17,0,0,1-1.31.12c-.35-.23-.27-.67.17-1l15-11A1.49,1.49,0,0,1,181.59,524.84Z"/><path class="cls-4" d="M146,496.21a1.19,1.19,0,0,1,.8.18c.42.29.32.83-.21,1.22l-18.78,13.73a1.58,1.58,0,0,1-1.68.16c-.4-.3-.3-.85.21-1.23l18.78-13.72A1.86,1.86,0,0,1,146,496.21Z"/><path class="cls-4" d="M108.62,469.13a1.23,1.23,0,0,1,.8.18c.42.29.32.84-.21,1.22L90.44,484.26a1.59,1.59,0,0,1-1.68.16c-.41-.3-.31-.85.21-1.23l18.78-13.72A1.88,1.88,0,0,1,108.62,469.13Z"/><path class="cls-4" d="M72.15,441.27a1.21,1.21,0,0,1,.85.2c.46.31.37.91-.22,1.33L52.15,457.92a1.68,1.68,0,0,1-1.83.17c-.45-.32-.35-.92.22-1.34l20.65-15.1A2,2,0,0,1,72.15,441.27Z"/><path class="cls-4" d="M35.68,413.43a1.41,1.41,0,0,1,1,.2c.48.35.37,1-.24,1.46L13.87,431.57a1.87,1.87,0,0,1-2,.18c-.49-.35-.38-1,.24-1.45l22.54-16.48A2,2,0,0,1,35.68,413.43Z"/><path class="cls-153" d="M1.06,393.12l60.67-44.36c3.83-2.82,4.5-6.84,1.51-9a8.67,8.67,0,0,0-5.87-1.29,13.2,13.2,0,0,0-6.5,2.44L1,377.34Z"/><path class="cls-154" d="M.92,338.12l17.31-12.66c3.51-2.57,4.16-6.28,1.4-8.27A8,8,0,0,0,14.22,316a12.3,12.3,0,0,0-6,2.25L.88,323.63Z"/><path class="cls-4" d="M280.84,534.31a.39.39,0,0,1,.24.06c.11.09.07.25-.07.36l-5.63,4.12a.45.45,0,0,1-.49,0c-.12-.09-.1-.25.06-.36l5.63-4.12A.61.61,0,0,1,280.84,534.31Z"/><path class="cls-4" d="M243.41,507.23a.43.43,0,0,1,.25,0c.12.09.09.25-.07.37L238,511.77a.54.54,0,0,1-.52,0c-.11-.09-.09-.25.06-.36l5.64-4.13A.55.55,0,0,1,243.41,507.23Z"/><path class="cls-4" d="M206,480.15a.41.41,0,0,1,.25.06c.11.08.07.24-.07.36l-5.63,4.12a.48.48,0,0,1-.51,0c-.12-.09-.1-.25,0-.37l5.64-4.12A.73.73,0,0,1,206,480.15Z"/><path class="cls-4" d="M173.33,449.21a.94.94,0,0,1,.63.14c.33.24.26.68-.17,1l-15,11a1.24,1.24,0,0,1-1.32.12c-.33-.24-.25-.68.17-1l15-11A1.32,1.32,0,0,1,173.33,449.21Z"/><path class="cls-4" d="M136.84,421.35a1,1,0,0,1,.71.17c.36.26.29.75-.18,1.09L120.47,435a1.41,1.41,0,0,1-1.52.13c-.35-.26-.26-.76.19-1.09L136,421.65A1.65,1.65,0,0,1,136.84,421.35Z"/><path class="cls-4" d="M100.37,393.5a1.2,1.2,0,0,1,.79.17c.41.29.31.84-.19,1.23L82.18,408.63a1.57,1.57,0,0,1-1.68.15c-.38-.29-.29-.84.21-1.22L99.5,393.83A1.93,1.93,0,0,1,100.37,393.5Z"/><path class="cls-4" d="M63.89,365.64a1.29,1.29,0,0,1,.87.21c.46.32.36.92-.23,1.34l-20.64,15.1a1.7,1.7,0,0,1-1.83.17c-.46-.33-.36-.92.22-1.34L62.93,366A2.08,2.08,0,0,1,63.89,365.64Z"/><path class="cls-4" d="M27.43,337.79a1.33,1.33,0,0,1,.94.21c.51.34.39,1-.23,1.46L5.6,355.94a1.8,1.8,0,0,1-2,.18c-.51-.34-.37-1,.25-1.45l22.52-16.48A2.09,2.09,0,0,1,27.43,337.79Z"/><path class="cls-155" d="M.85,311.49l51.61-37.74c3.79-2.78,4.45-6.74,1.5-8.88a8.62,8.62,0,0,0-5.81-1.28A13.12,13.12,0,0,0,41.74,266L.81,295.92Z"/><path class="cls-156" d="M.72,257.34,17.06,245.4c3.87-2.84,4.56-6.93,1.53-9.13a8.9,8.9,0,0,0-6-1.3A13.71,13.71,0,0,0,6,237.43L.68,241.35Z"/><path class="cls-157" d="M.47,155.46,7,150.7c7.21-5.26,8.5-12.84,2.86-16.92a15.55,15.55,0,0,0-9.42-2.46Z"/><path class="cls-4" d="M310,485.76a.39.39,0,0,1,.24.06c.11.09.09.25-.07.36l-5.62,4.12a.51.51,0,0,1-.51.05c-.11-.09-.09-.25.06-.36l5.64-4.13A.7.7,0,0,1,310,485.76Z"/><path class="cls-4" d="M272.58,458.69a.37.37,0,0,1,.24.06c.12.09.1.24-.06.37l-5.63,4.11a.45.45,0,0,1-.51.05c-.11-.09-.09-.25.07-.37l5.62-4.11A.53.53,0,0,1,272.58,458.69Z"/><path class="cls-4" d="M235.14,431.61a.29.29,0,0,1,.24.06c.12.09.1.24,0,.35l-5.63,4.12a.48.48,0,0,1-.51.05c-.12-.09-.09-.25,0-.36l5.63-4.11A.65.65,0,0,1,235.14,431.61Z"/><path class="cls-4" d="M197.72,404.52a.44.44,0,0,1,.24,0c.11.11.09.26-.06.38l-5.63,4.12a.47.47,0,0,1-.49,0c-.14-.09-.1-.25.06-.37l5.62-4.12A.59.59,0,0,1,197.72,404.52Z"/><path class="cls-4" d="M166,372.8a1.07,1.07,0,0,1,.7.15c.36.27.27.77-.2,1.1l-16.89,12.36a1.38,1.38,0,0,1-1.51.14c-.36-.27-.27-.76.2-1.1l16.9-12.36A1.65,1.65,0,0,1,166,372.8Z"/><path class="cls-4" d="M129.54,344.95a1.19,1.19,0,0,1,.79.18c.41.3.32.84-.21,1.22l-18.78,13.74a1.61,1.61,0,0,1-1.69.15c-.38-.3-.31-.85.21-1.23l18.79-13.73A2,2,0,0,1,129.54,344.95Z"/><path class="cls-4" d="M92.1,317.88a1.15,1.15,0,0,1,.8.18c.42.3.32.83-.21,1.22L73.92,333a1.59,1.59,0,0,1-1.69.15c-.38-.29-.3-.84.22-1.21l18.78-13.73A1.72,1.72,0,0,1,92.1,317.88Z"/><path class="cls-158" d="M.92,336.52l97.88-71.57c2.74-2,3.22-4.89,1.08-6.44a6.24,6.24,0,0,0-4.2-.93A9.52,9.52,0,0,0,91,259.33L.89,325.22Z"/><path class="cls-159" d="M.79,284.31l80.85-59.12c3.77-2.77,4.45-6.74,1.48-8.89a8.64,8.64,0,0,0-5.8-1.27,13.1,13.1,0,0,0-6.41,2.4L.75,268.73Z"/><path class="cls-160" d="M.65,230.07l44.57-32.58c3.81-2.82,4.49-6.84,1.51-9a8.73,8.73,0,0,0-5.88-1.3,13.22,13.22,0,0,0-6.5,2.44L.61,214.29Z"/><path class="cls-161" d="M.52,175.93l9.29-6.79c3.94-2.87,4.65-7,1.56-9.25a8.91,8.91,0,0,0-6-1.33A13.87,13.87,0,0,0,.48,160.1Z"/><path class="cls-162" d="M.41,132.45l75.22-55C84.86,70.7,86.5,61,79.28,55.79c-3.6-2.62-8.74-3.61-14.13-3.12a31.94,31.94,0,0,0-15.66,5.88L.31,94.51Z"/><path class="cls-163" d="M.27,78,37.19,51c9.17-6.72,10.8-16.36,3.62-21.54-3.59-2.61-8.69-3.6-14-3.09a31.62,31.62,0,0,0-15.56,5.84l-11,8.06Z"/><path class="cls-164" d="M.14,23.38C7.93,16.79,9.09,8,2.35,3.13A14.86,14.86,0,0,0,.08,1.87Z"/><path class="cls-4" d="M301.74,410.13a.47.47,0,0,1,.25.05c.11.09.07.25-.07.37l-5.63,4.12a.46.46,0,0,1-.49.05c-.12-.1-.1-.26,0-.37l5.64-4.12A.54.54,0,0,1,301.74,410.13Z"/><path class="cls-4" d="M264.32,383.05a.4.4,0,0,1,.25.06c.11.09.09.25-.07.36l-5.62,4.12a.51.51,0,0,1-.52.05c-.11-.09-.09-.25.06-.37l5.64-4.12A.53.53,0,0,1,264.32,383.05Z"/><path class="cls-4" d="M226.9,356a.39.39,0,0,1,.22,0c.11.1.09.26-.06.37l-5.63,4.12a.44.44,0,0,1-.5,0c-.13-.08-.1-.24.06-.36l5.64-4.12A.53.53,0,0,1,226.9,356Z"/><path class="cls-4" d="M189.46,328.89a.33.33,0,0,1,.23,0c.14.1.1.25-.06.36L184,333.43a.46.46,0,0,1-.49,0c-.12-.09-.1-.25,0-.36L189.2,329A.55.55,0,0,1,189.46,328.89Z"/><path class="cls-4" d="M152,301.81a.38.38,0,0,1,.24.06c.12.08.1.25-.06.36l-5.64,4.13a.46.46,0,0,1-.48,0c-.12-.09-.1-.25.06-.37l5.63-4.12A.69.69,0,0,1,152,301.81Z"/><path class="cls-4" d="M120.32,270.09a1.06,1.06,0,0,1,.72.16c.37.26.3.75-.18,1.09L104,283.7a1.37,1.37,0,0,1-1.5.15c-.36-.26-.29-.75.19-1.09l16.89-12.36A1.6,1.6,0,0,1,120.32,270.09Z"/><path class="cls-165" d="M127.71,206.69a6.66,6.66,0,0,1,4.45,1c2.29,1.64,1.75,4.7-1.14,6.82L25.85,291.38c-2.91,2.12-7.08,2.52-9.37.87s-1.76-4.7,1.16-6.81l105.15-76.89A10.2,10.2,0,0,1,127.71,206.69Z"/><path class="cls-166" d="M.71,254.8l87.81-64.22c2.65-1.94,3.12-4.71,1-6.2a6,6,0,0,0-4.05-.89A9.28,9.28,0,0,0,81,185.16L.69,243.92Z"/><path class="cls-167" d="M.58,202.67l71.76-52.47c3.75-2.73,4.41-6.66,1.48-8.78a8.49,8.49,0,0,0-5.71-1.25,12.89,12.89,0,0,0-6.34,2.38L.54,187.33Z"/><path class="cls-168" d="M.46,151.52l64.83-47.41c5.29-3.86,6.22-9.42,2.08-12.42a12.08,12.08,0,0,0-8.1-1.77,18.22,18.22,0,0,0-9,3.36L.4,129.78Z"/><path class="cls-169" d="M.32,97.08,26.86,77.67c5.21-3.82,6.15-9.33,2.05-12.3a11.85,11.85,0,0,0-8-1.75A18.07,18.07,0,0,0,12,66.94L.27,75.54Z"/><path class="cls-170" d="M.21,50.93,67.38,1.81C76.61-4.93,78.21-14.63,71-19.85c-3.6-2.61-8.74-3.61-14.13-3.1a32.09,32.09,0,0,0-15.66,5.87L.11,13Z"/><path class="cls-4" d="M330.91,361.59a.32.32,0,0,1,.23.05c.11.09.09.25-.07.36l-5.62,4.11a.51.51,0,0,1-.52.05c-.1-.09-.07-.25.07-.36l5.63-4.12A.57.57,0,0,1,330.91,361.59Z"/><path class="cls-4" d="M293.49,334.5a.34.34,0,0,1,.23.06c.13.09.1.25-.07.37L288,339a.45.45,0,0,1-.49,0c-.13-.08-.1-.24.06-.36l5.63-4.11A.59.59,0,0,1,293.49,334.5Z"/><path class="cls-4" d="M256,307.43a.36.36,0,0,1,.25.06c.11.08.08.24-.06.35L250.59,312a.5.5,0,0,1-.51,0c-.11-.1-.09-.25.06-.37l5.63-4.12A.51.51,0,0,1,256,307.43Z"/><path class="cls-4" d="M218.63,280.35a.28.28,0,0,1,.22,0c.12.09.1.26,0,.37l-5.64,4.12a.47.47,0,0,1-.49,0c-.12-.09-.1-.26.06-.37l5.63-4.13A.6.6,0,0,1,218.63,280.35Z"/><path class="cls-4" d="M181.21,253.27a.3.3,0,0,1,.24,0c.11.09.09.25-.07.36l-5.63,4.13a.55.55,0,0,1-.51,0c-.1-.09-.09-.25.07-.36l5.63-4.12A.41.41,0,0,1,181.21,253.27Z"/><path class="cls-4" d="M156.18,216.14a1.93,1.93,0,0,1,1.26.27c.66.48.51,1.35-.33,2l-30.05,22a2.45,2.45,0,0,1-2.67.25c-.67-.47-.51-1.34.32-1.95l30.05-22A2.87,2.87,0,0,1,156.18,216.14Z"/><path class="cls-4" d="M115.87,191.37a1.59,1.59,0,0,1,1.05.22c.52.39.41,1.09-.27,1.59L92.25,211a2.06,2.06,0,0,1-2.18.21c-.53-.38-.41-1.11.27-1.6l24.38-17.83A2.37,2.37,0,0,1,115.87,191.37Z"/><path class="cls-171" d="M.62,218.64A3.41,3.41,0,0,0,2,221.15c2.49,1.84,7.16,1.39,10.37-1l116.41-85.12c3.22-2.36,3.79-5.72,1.28-7.55a7.37,7.37,0,0,0-4.93-1.08,11.14,11.14,0,0,0-5.45,2.05L3.3,213.6a6.56,6.56,0,0,0-2.68,3.73Z"/><path class="cls-172" d="M.52,178.81,132.9,82c5.35-3.9,6.28-9.51,2.12-12.54a12.2,12.2,0,0,0-8.18-1.78,18.6,18.6,0,0,0-9.06,3.38L.47,156.85Z"/><path class="cls-168" d="M.39,124.35,94.45,55.57c5.29-3.87,6.22-9.42,2.08-12.42a12.15,12.15,0,0,0-8.09-1.78,18.55,18.55,0,0,0-9,3.37L.33,102.61Z"/><path class="cls-173" d="M.26,71.91l75-54.82C81.47,12.54,82.57,6,77.69,2.48,75.26.72,71.82,0,68.17.38a21.5,21.5,0,0,0-10.53,4L.19,46.35Z"/><path class="cls-174" d="M.05-10.34.13,19.9l60-43.84"/><path class="cls-4" d="M322.66,286a.46.46,0,0,1,.23.05c.11.08.08.25-.06.37l-5.64,4.12a.48.48,0,0,1-.51,0c-.11-.08-.09-.24.06-.36l5.64-4.12A.6.6,0,0,1,322.66,286Z"/><path class="cls-4" d="M285.23,258.89a.37.37,0,0,1,.24,0c.12.1.09.26-.06.37l-5.63,4.12a.5.5,0,0,1-.52,0c-.11-.09-.09-.24.07-.37L285,259A.57.57,0,0,1,285.23,258.89Z"/><path class="cls-4" d="M247.8,231.79a.35.35,0,0,1,.24,0,.24.24,0,0,1-.06.37l-5.64,4.12a.48.48,0,0,1-.49,0c-.12-.09-.1-.25,0-.36l5.64-4.12A.63.63,0,0,1,247.8,231.79Z"/><path class="cls-4" d="M210.37,204.72a.29.29,0,0,1,.24,0c.12.09.1.25,0,.36l-5.66,4.13a.46.46,0,0,1-.49,0c-.1-.09-.09-.25.06-.37l5.64-4.12A.5.5,0,0,1,210.37,204.72Z"/><path class="cls-4" d="M188.19,165.26a2.28,2.28,0,0,1,1.51.34c.77.56.6,1.6-.38,2.31L153.65,194a3,3,0,0,1-3.2.3c-.75-.55-.58-1.6.4-2.32l35.67-26.08A3.49,3.49,0,0,1,188.19,165.26Z"/><path class="cls-4" d="M147,141.27a1.72,1.72,0,0,1,1.19.27c.61.44.47,1.26-.32,1.81L119.66,164a2.29,2.29,0,0,1-2.5.23c-.59-.43-.46-1.25.32-1.81l28.18-20.6A2.58,2.58,0,0,1,147,141.27Z"/><path class="cls-175" d="M122.86,103.38a3.5,3.5,0,0,1,2.32.51c1.16.85.9,2.44-.59,3.53L70.14,147.23c-1.5,1.11-3.66,1.3-4.86.45s-.9-2.43.62-3.53l54.42-39.82A5.38,5.38,0,0,1,122.86,103.38Z"/><path class="cls-176" d="M.44,146.76a10.88,10.88,0,0,0,2.82-1.45L121.57,58.8c3.27-2.39,3.82-5.82,1.3-7.68a7.49,7.49,0,0,0-5-1.08,11.26,11.26,0,0,0-5.55,2.08L.41,133.93Z"/><path class="cls-177" d="M.31,93.23,86.16,30.45c3.36-2.47,4-6,1.33-7.92a7.6,7.6,0,0,0-5.16-1.12,11.69,11.69,0,0,0-5.71,2.14L.28,79.38Z"/><path class="cls-178" d="M.13,20,.19,43.89l96.13-70.3"/><path class="cls-4" d="M351.82,237.4a.35.35,0,0,1,.24.05c.11.08.09.25-.07.36l-5.62,4.13a.57.57,0,0,1-.52,0c-.11-.1-.07-.26.07-.37l5.63-4.13A.51.51,0,0,1,351.82,237.4Z"/><path class="cls-4" d="M314.4,210.32a.3.3,0,0,1,.22,0c.14.08.1.25-.06.36l-5.63,4.12a.44.44,0,0,1-.49,0c-.12-.09-.1-.25.06-.36l5.63-4.12A.51.51,0,0,1,314.4,210.32Z"/><path class="cls-4" d="M298,166.24a2.84,2.84,0,0,1,2,.44c1,.72.8,2.09-.51,3L252.47,204a3.87,3.87,0,0,1-4.18.4c-1-.74-.78-2.1.51-3l46.94-34.32A4.51,4.51,0,0,1,298,166.24Z"/><path class="cls-4" d="M257.66,141.48a2.54,2.54,0,0,1,1.74.4c.89.63.7,1.83-.45,2.67l-41.32,30.21a3.41,3.41,0,0,1-3.68.35c-.88-.65-.68-1.86.46-2.69l41.3-30.22A4.11,4.11,0,0,1,257.66,141.48Z"/><path class="cls-175" d="M226.89,109a3.38,3.38,0,0,1,2.3.51c1.19.85.92,2.42-.6,3.52l-54.42,39.82c-1.53,1.1-3.67,1.3-4.86.44s-.92-2.42.58-3.53l54.46-39.81A5.2,5.2,0,0,1,226.89,109Z"/><path class="cls-175" d="M189.47,81.91a3.39,3.39,0,0,1,2.3.51c1.19.84.93,2.43-.6,3.52l-54.45,39.8c-1.52,1.12-3.68,1.31-4.86.45s-.91-2.41.6-3.52l54.45-39.81A5.36,5.36,0,0,1,189.47,81.91Z"/><path class="cls-179" d="M181.61,30.87a7.15,7.15,0,0,1,4.76,1.06c2.44,1.76,1.88,5-1.23,7.3L72.47,121.61c-3.1,2.28-7.61,2.7-10,.93s-1.89-5,1.23-7.3L176.31,32.86A10.84,10.84,0,0,1,181.61,30.87Z"/><path class="cls-180" d="M147,1.47a7.55,7.55,0,0,1,5,1.11c2.54,1.85,2,5.28-1.29,7.68L32.46,96.75c-3.29,2.39-8,2.82-10.56,1s-2-5.28,1.3-7.69L141.48,3.55A11.49,11.49,0,0,1,147,1.47Z"/><line class="cls-181" x1="0.2" y1="47.52" x2="0.25" y2="70.74"/><line class="cls-178" x1="0.06" y1="-7.15" x2="0.12" y2="16.71"/><path class="cls-4" d="M343.56,161.78a.34.34,0,0,1,.23.05c.11.09.09.25-.06.36l-5.63,4.12a.49.49,0,0,1-.51,0c-.11-.08-.09-.24.06-.36l5.66-4.12A.57.57,0,0,1,343.56,161.78Z"/><path class="cls-182" d="M330,115.38a3.18,3.18,0,0,1,2.22.48c1.14.82.87,2.34-.57,3.4L279,157.72c-1.45,1.06-3.55,1.26-4.69.44s-.87-2.36.57-3.41l52.6-38.45A4.83,4.83,0,0,1,330,115.38Z"/><path class="cls-175" d="M294.44,86.75a3.5,3.5,0,0,1,2.36.52c1.21.88,1,2.52-.61,3.66l-56.33,41.19c-1.54,1.13-3.77,1.34-5,.47s-.93-2.52.62-3.66L291.8,87.74A5.43,5.43,0,0,1,294.44,86.75Z"/><path class="cls-175" d="M257,59.67a3.43,3.43,0,0,1,2.37.53c1.24.87,1,2.52-.61,3.65L202.44,105c-1.54,1.13-3.77,1.33-5,.46s-.93-2.52.62-3.66L254.4,60.66A5.28,5.28,0,0,1,257,59.67Z"/><path class="cls-4" d="M214.82,36.44a2.9,2.9,0,0,1,2,.44c1,.73.78,2.11-.51,3L169.35,74.27a3.88,3.88,0,0,1-4.18.37c-1-.73-.77-2.09.52-3l46.94-34.35A4.53,4.53,0,0,1,214.82,36.44Z"/><path class="cls-183" d="M205-13a6.27,6.27,0,0,1,4.27.95c2.2,1.58,1.7,4.52-1.1,6.57L106.82,68.62c-2.81,2.05-6.83,2.42-9,.84s-1.69-4.53,1.11-6.57L200.29-11.24A9.63,9.63,0,0,1,205-13Z"/><path class="cls-184" d="M26.13,78.52C20.75,82.46,13,83.19,8.73,80.14s-3.26-8.72,2.13-12.67"/><line class="cls-185" x1="0.13" y1="20.57" x2="0.19" y2="43.37"/><path class="cls-4" d="M427.29,126.4a2.51,2.51,0,0,1,1.68.36c.85.63.66,1.76-.44,2.56l-39.43,28.83a3.28,3.28,0,0,1-3.51.33c-.85-.62-.66-1.77.43-2.56l39.43-28.83A3.82,3.82,0,0,1,427.29,126.4Z"/><path class="cls-4" d="M390.82,98.54a2.63,2.63,0,0,1,1.77.38c.89.64.68,1.84-.46,2.68l-41.31,30.2a3.41,3.41,0,0,1-3.68.35c-.89-.64-.7-1.86.45-2.69l41.33-30.21A3.86,3.86,0,0,1,390.82,98.54Z"/><path class="cls-4" d="M354.37,70.69a2.76,2.76,0,0,1,1.82.39c1,.68.72,1.95-.47,2.82l-43.19,31.56a3.5,3.5,0,0,1-3.84.36c-.94-.67-.72-1.92.47-2.79l43.17-31.57A4.17,4.17,0,0,1,354.37,70.69Z"/><path class="cls-186" d="M325.52,36.66a3.83,3.83,0,0,1,2.53.55c1.3.94,1,2.69-.65,3.9L267.33,85c-1.66,1.22-4.08,1.45-5.36.49s-1-2.68.65-3.88L322.7,37.71A5.7,5.7,0,0,1,325.52,36.66Z"/><path class="cls-187" d="M287.13,10.34a3.6,3.6,0,0,1,2.46.56c1.28.89,1,2.59-.63,3.75l-58.2,42.55c-1.62,1.18-3.91,1.4-5.18.48s-1-2.59.63-3.78l58.19-42.55A5.77,5.77,0,0,1,287.13,10.34Z"/><path class="cls-175" d="M248.76-16a3.52,3.52,0,0,1,2.37.53c1.21.88.93,2.51-.62,3.65L194.17,29.4c-1.54,1.13-3.77,1.34-5,.46s-.93-2.52.6-3.66L246.12-15A5.54,5.54,0,0,1,248.76-16Z"/><path class="cls-188" d="M94.45,55.57c-5.3,3.86-12.92,4.58-17.05,1.59s-3.21-8.55,2.09-12.42"/><path class="cls-184" d="M55.32,30c-5.38,3.95-13.2,4.68-17.43,1.62S34.65,22.87,40,18.91"/><path class="cls-185" d="M.06-6.63.1,8.05c4.48,1.43,10.64.36,15.2-3"/><path class="cls-4" d="M481.52,115a.87.87,0,0,1,.63.14c.33.22.25.67-.16,1l-15,11a1.2,1.2,0,0,1-1.32.12c-.35-.23-.26-.66.16-1l15-11A1.51,1.51,0,0,1,481.52,115Z"/><path class="cls-4" d="M445,87.12a1,1,0,0,1,.7.16c.36.26.29.76-.18,1.1l-16.9,12.34a1.41,1.41,0,0,1-1.5.15c-.36-.27-.27-.76.19-1.1l16.9-12.36A1.49,1.49,0,0,1,445,87.12Z"/><path class="cls-189" d="M437.17,36.1a4.66,4.66,0,0,1,3.16.69c1.63,1.17,1.27,3.35-.83,4.86L364.42,96.58c-2.09,1.52-5.06,1.79-6.7.62s-1.25-3.35.83-4.86l75.11-54.91A7,7,0,0,1,437.17,36.1Z"/><path class="cls-190" d="M398.79,9.79a4.65,4.65,0,0,1,3.09.67c1.58,1.15,1.22,3.27-.79,4.75L327.85,68.75c-2,1.48-4.92,1.75-6.5.61s-1.23-3.27.79-4.75l73.24-53.53A6.82,6.82,0,0,1,398.79,9.79Z"/><path class="cls-191" d="M360.41-16.53a4.54,4.54,0,0,1,3,.65c1.55,1.11,1.19,3.19-.77,4.64L291.29,40.93c-2,1.44-4.81,1.7-6.38.59s-1.17-3.2.8-4.62l71.35-52.19A6.82,6.82,0,0,1,360.41-16.53Z"/><path class="cls-192" d="M254.72,13.1c-1.91,1.41-4.68,1.66-6.18.57s-1.14-3.09.77-4.49"/><path class="cls-193" d="M180.08,17.83c-4.14,3-10.15,3.6-13.37,1.25s-2.52-6.71,1.63-9.74"/><path class="cls-4" d="M881.14,340.32a.43.43,0,0,1,.31.07c.16.12.12.33-.07.48l-7.52,5.5a.62.62,0,0,1-.68.06c-.17-.12-.14-.33.07-.48l7.53-5.5A.75.75,0,0,1,881.14,340.32Z"/><path class="cls-4" d="M589.36,117.49a1.46,1.46,0,0,1,1,.2c.48.36.37,1-.24,1.47l-22.54,16.48a1.83,1.83,0,0,1-2,.18c-.51-.34-.4-1,.24-1.46l22.52-16.48A2.11,2.11,0,0,1,589.36,117.49Z"/><path class="cls-4" d="M551,91.18a1.37,1.37,0,0,1,.88.2c.43.32.34.92-.24,1.34L531,107.83a1.71,1.71,0,0,1-1.83.17c-.45-.33-.35-.93.22-1.34L550,91.55A2,2,0,0,1,551,91.18Z"/><path class="cls-5" d="M534.51,47.1a3.93,3.93,0,0,1,2.63.58c1.35,1,1,2.77-.69,4L474.47,97c-1.68,1.24-4.19,1.47-5.5.51s-1-2.76.68-4l62-45.31A6,6,0,0,1,534.51,47.1Z"/><path class="cls-6" d="M504.7,13.85a4.89,4.89,0,0,1,3.29.71c1.64,1.21,1.27,3.43-.85,5l-77,56.3c-2.12,1.55-5.2,1.83-6.86.64s-1.27-3.45.84-5l77-56.31A7.42,7.42,0,0,1,504.7,13.85Z"/><path class="cls-189" d="M465.36-11.7a4.5,4.5,0,0,1,3.09.7c1.59,1.14,1.23,3.26-.79,4.74L394.45,47.28c-2,1.47-5,1.74-6.54.6s-1.22-3.26.81-4.74l73.22-53.55A7.15,7.15,0,0,1,465.36-11.7Z"/><path class="cls-190" d="M430.24-33.34,357,20.2c-2,1.47-4.93,1.75-6.52.61s-1.24-3.27.8-4.75"/><path class="cls-194" d="M245-2.17C240.69,1,234.56,1.52,231.22-.89s-2.55-6.87,1.69-10"/><path class="cls-4" d="M948.68,318.08a.51.51,0,0,1,.4.1c.21.13.16.4-.11.6l-9.39,6.86a.77.77,0,0,1-.81.08c-.22-.15-.16-.43.1-.61l9.39-6.86A.79.79,0,0,1,948.68,318.08Z"/><path class="cls-4" d="M910.29,291.77a.56.56,0,0,1,.33.08c.15.12.12.34-.08.49l-7.52,5.5a.64.64,0,0,1-.68.06c-.15-.12-.11-.33.08-.49l7.52-5.5A.73.73,0,0,1,910.29,291.77Z"/><path class="cls-4" d="M652.14,99.12a.86.86,0,0,1,.62.14c.33.23.26.67-.17,1l-15,11a1.24,1.24,0,0,1-1.35.12c-.32-.23-.25-.67.17-1l15-11A1.46,1.46,0,0,1,652.14,99.12Z"/><path class="cls-4" d="M619.47,68.17a1.55,1.55,0,0,1,1,.23c.53.39.4,1.09-.27,1.59L595.84,87.82a2,2,0,0,1-2.18.21c-.52-.39-.41-1.09.27-1.58L618.33,68.6A2.42,2.42,0,0,1,619.47,68.17Z"/><path class="cls-4" d="M581.1,41.86a1.44,1.44,0,0,1,1,.21c.49.35.39,1-.24,1.46L559.24,60a1.8,1.8,0,0,1-2,.18c-.49-.35-.4-1,.24-1.45L580,42.25A2.1,2.1,0,0,1,581.1,41.86Z"/><path class="cls-5" d="M563.68-1.44a3.81,3.81,0,0,1,2.62.58c1.35,1,1,2.76-.67,4l-62,45.31c-1.69,1.24-4.19,1.47-5.52.52s-1-2.76.68-4l62-45.32A5.83,5.83,0,0,1,563.68-1.44Z"/><path class="cls-6" d="M536.3-29l-77,56.29c-2.12,1.55-5.19,1.84-6.85.63s-1.29-3.43.83-5l77-56.29"/><path class="cls-189" d="M422.73-.53c-2.08,1.53-5,1.8-6.68.63s-1.27-3.35.81-4.87"/><path class="cls-4" d="M1052.7,323.69a.62.62,0,0,1,.4.08c.21.15.17.43-.11.62l-9.39,6.87a.81.81,0,0,1-.83.08c-.21-.15-.16-.42.11-.62l9.4-6.87A.83.83,0,0,1,1052.7,323.69Z"/><path class="cls-4" d="M1015.26,296.61a.66.66,0,0,1,.41.08c.21.15.16.42-.11.62l-9.39,6.86a.76.76,0,0,1-.83.08c-.2-.15-.16-.42.1-.6l9.39-6.88A1,1,0,0,1,1015.26,296.61Z"/><path class="cls-4" d="M977.85,269.54a.64.64,0,0,1,.4.07c.2.15.15.42-.11.62l-9.4,6.86a.77.77,0,0,1-.81.09c-.19-.16-.15-.42.11-.62l9.39-6.86A.77.77,0,0,1,977.85,269.54Z"/><path class="cls-4" d="M759,102.4a1.41,1.41,0,0,1,.89.2c.43.32.34.93-.23,1.35L739,119a1.71,1.71,0,0,1-1.83.17c-.44-.33-.35-.93.22-1.35l20.66-15.1A1.94,1.94,0,0,1,759,102.4Z"/><path class="cls-4" d="M720.64,76.1a1.14,1.14,0,0,1,.79.18c.4.29.31.83-.21,1.22L702.44,91.23a1.61,1.61,0,0,1-1.69.16c-.4-.3-.3-.85.21-1.23l18.79-13.72A1.72,1.72,0,0,1,720.64,76.1Z"/><path class="cls-4" d="M681.3,50.57a.84.84,0,0,1,.62.14c.33.22.26.66-.16,1l-15,11a1.24,1.24,0,0,1-1.33.12c-.33-.23-.26-.67.17-1l15-11A1.31,1.31,0,0,1,681.3,50.57Z"/><path class="cls-4" d="M648.65,19.62a1.51,1.51,0,0,1,1,.22c.54.39.42,1.1-.27,1.59L625,39.28a2,2,0,0,1-2.17.2c-.52-.38-.4-1.09.27-1.58L647.5,20A2.35,2.35,0,0,1,648.65,19.62Z"/><path class="cls-5" d="M630.28-22.92a3.84,3.84,0,0,1,2.62.58c1.32,1,1,2.77-.69,4L570.26,27c-1.7,1.24-4.21,1.47-5.52.51s-1-2.76.67-4l61.95-45.31A5.92,5.92,0,0,1,630.28-22.92Z"/><path class="cls-7" d="M525.9,5.83c-2.12,1.54-5.22,1.83-6.86.64s-1.28-3.43.83-5"/><path class="cls-4" d="M1157.67,328.54a.6.6,0,0,1,.47.1c.25.17.2.5-.11.73l-11.26,8.23a.92.92,0,0,1-1,.09c-.25-.18-.2-.51.11-.73l11.26-8.23A1,1,0,0,1,1157.67,328.54Z"/><path class="cls-4" d="M1120.25,301.45a.64.64,0,0,1,.47.11c.25.17.2.5-.11.73l-11.29,8.23a.91.91,0,0,1-1,.1c-.25-.18-.2-.51.11-.73l11.3-8.23A1,1,0,0,1,1120.25,301.45Z"/><path class="cls-4" d="M1082.83,274.37a.62.62,0,0,1,.47.11c.24.17.2.5-.12.72l-11.27,8.24a.92.92,0,0,1-1,.1c-.25-.17-.19-.51.13-.73l11.27-8.25A1.08,1.08,0,0,1,1082.83,274.37Z"/><path class="cls-4" d="M1044.43,248.07a.6.6,0,0,1,.4.09c.21.14.17.41-.1.61l-9.38,6.86a.79.79,0,0,1-.83.07c-.21-.15-.15-.42.08-.61l9.39-6.85A.76.76,0,0,1,1044.43,248.07Z"/><path class="cls-4" d="M789.14,53.08a1.45,1.45,0,0,1,1,.21c.48.34.37,1-.24,1.46L767.31,71.23a1.82,1.82,0,0,1-2,.19c-.51-.34-.4-1,.23-1.46l22.52-16.47A2.22,2.22,0,0,1,789.14,53.08Z"/><path class="cls-4" d="M750.76,26.77a1.34,1.34,0,0,1,.86.2c.44.32.35.92-.23,1.34l-20.65,15.1a1.68,1.68,0,0,1-1.81.17c-.47-.33-.35-.92.23-1.34l20.63-15.1A2.06,2.06,0,0,1,750.76,26.77Z"/><path class="cls-4" d="M712.36.46a1.12,1.12,0,0,1,.8.19c.4.29.31.83-.21,1.21L694.18,15.59a1.58,1.58,0,0,1-1.68.17c-.4-.3-.31-.85.21-1.23L711.48.8A2.07,2.07,0,0,1,712.36.46Z"/><path class="cls-4" d="M1262.65,333.37a.77.77,0,0,1,.54.13c.3.19.24.58-.13.84L1249.92,344a1.1,1.1,0,0,1-1.17.1c-.28-.21-.21-.58.16-.85L1262,333.6A1.48,1.48,0,0,1,1262.65,333.37Z"/><path class="cls-4" d="M857.62,30.06a1.59,1.59,0,0,1,1.11.26c.57.4.43,1.17-.28,1.69L832.17,51.24a2.18,2.18,0,0,1-2.34.22c-.57-.41-.43-1.18.27-1.7l26.29-19.23A2.61,2.61,0,0,1,857.62,30.06Z"/><path class="cls-4" d="M818.31,4.53a1.41,1.41,0,0,1,.94.22c.49.34.4,1-.24,1.45L796.47,22.69a1.87,1.87,0,0,1-2,.18c-.48-.35-.39-1,.26-1.46L817.23,4.93A2.29,2.29,0,0,1,818.31,4.53Z"/><path class="cls-4" d="M918.5,13.24a1.05,1.05,0,0,1,.65.14c.32.24.25.68-.17,1l-15,11a1.2,1.2,0,0,1-1.33.12c-.33-.23-.26-.67.18-1l15-11A1.33,1.33,0,0,1,918.5,13.24Z"/><path class="cls-4" d="M1070.43,37.43a2.37,2.37,0,0,1,1.52.33c.75.56.58,1.6-.39,2.31l-35.68,26.09a2.94,2.94,0,0,1-3.16.3c-.78-.56-.61-1.59.39-2.32l35.66-26.09A3.53,3.53,0,0,1,1070.43,37.43Z"/><path class="cls-4" d="M1032.05,11.12a2,2,0,0,1,1.42.32c.74.53.57,1.49-.37,2.18L999.32,38.34a2.73,2.73,0,0,1-3,.28c-.73-.51-.57-1.5.37-2.18l33.8-24.71A3.14,3.14,0,0,1,1032.05,11.12Z"/><path class="cls-4" d="M994.63-16a2.11,2.11,0,0,1,1.42.32c.74.52.58,1.52-.36,2.19l-33.8,24.71a2.73,2.73,0,0,1-3,.27c-.74-.52-.57-1.51.36-2.18l33.8-24.7A3.29,3.29,0,0,1,994.63-16Z"/><path class="cls-4" d="M1242.65,102.61a1.53,1.53,0,0,1,1,.21c.47.35.37,1-.26,1.45l-22.55,16.49a1.85,1.85,0,0,1-2,.18c-.48-.35-.37-1,.26-1.45L1241.6,103A2,2,0,0,1,1242.65,102.61Z"/><path class="cls-4" d="M1204.25,76.3a1.28,1.28,0,0,1,.88.2c.44.33.35.92-.22,1.33l-20.66,15.11a1.69,1.69,0,0,1-1.81.18c-.46-.32-.34-.93.22-1.35l20.65-15.1A2,2,0,0,1,1204.25,76.3Z"/><path class="cls-4" d="M1166.83,49.22a1.29,1.29,0,0,1,.88.19c.46.32.36.93-.24,1.34l-20.65,15.11A1.71,1.71,0,0,1,1145,66c-.46-.32-.35-.92.23-1.34l20.66-15.11A1.89,1.89,0,0,1,1166.83,49.22Z"/><path class="cls-82" d="M1154.18,2.06a4.42,4.42,0,0,1,2.94.65c1.51,1.08,1.15,3.1-.75,4.5L1086.91,58c-1.92,1.41-4.7,1.67-6.2.58s-1.16-3.1.75-4.5l69.47-50.8A6.76,6.76,0,0,1,1154.18,2.06Z"/><path class="cls-4" d="M1100.56-11.89a2.43,2.43,0,0,1,1.59.34c.8.59.62,1.69-.41,2.43L1064.2,18.35a3.11,3.11,0,0,1-3.37.31c-.8-.57-.62-1.67.4-2.43l37.58-27.47A3.47,3.47,0,0,1,1100.56-11.89Z"/><path class="cls-4" d="M1347.62,107.46a1.59,1.59,0,0,1,1,.22c.53.38.41,1.08-.27,1.58l-24.43,17.85a2,2,0,0,1-2.16.2c-.53-.38-.4-1.09.27-1.58l24.42-17.85A2.31,2.31,0,0,1,1347.62,107.46Z"/><path class="cls-4" d="M1309.23,81.15a1.48,1.48,0,0,1,1,.21c.48.35.37,1-.24,1.46L1287.4,99.29a1.81,1.81,0,0,1-2,.18c-.49-.34-.39-1,.26-1.45l22.54-16.48A2.08,2.08,0,0,1,1309.23,81.15Z"/><path class="cls-4" d="M1271.82,54.06a1.51,1.51,0,0,1,1,.2c.47.37.37,1-.26,1.46L1250,72.22a1.86,1.86,0,0,1-2,.18c-.48-.35-.37-1,.26-1.46l22.55-16.48A2.06,2.06,0,0,1,1271.82,54.06Z"/><path class="cls-4" d="M1234.39,27a1.38,1.38,0,0,1,1,.21c.49.35.37,1-.24,1.46l-22.54,16.48a1.86,1.86,0,0,1-2,.19c-.48-.35-.39-1,.27-1.46l22.54-16.48A2.15,2.15,0,0,1,1234.39,27Z"/><path class="cls-4" d="M1195,1.44a1.19,1.19,0,0,1,.8.18c.4.29.3.84-.21,1.23l-18.77,13.72a1.55,1.55,0,0,1-1.67.15c-.41-.3-.32-.83.18-1.22l18.78-13.72A1.85,1.85,0,0,1,1195,1.44Z"/><path class="cls-97" d="M1116.07,9.45c-1.92,1.41-4.7,1.66-6.2.58s-1.14-3.11.77-4.51"/><path class="cls-4" d="M1339.36,31.83a1.59,1.59,0,0,1,1,.22c.52.39.4,1.09-.27,1.59l-24.42,17.84a2,2,0,0,1-2.17.2c-.53-.39-.42-1.09.26-1.58l24.43-17.86A2.39,2.39,0,0,1,1339.36,31.83Z"/><path class="cls-41" d="M1303.84,3.2a1.73,1.73,0,0,1,1.19.27c.62.43.46,1.25-.32,1.81l-28.15,20.6a2.35,2.35,0,0,1-2.52.23c-.62-.44-.48-1.26.3-1.82L1302.51,3.7A2.77,2.77,0,0,1,1303.84,3.2Z"/><path class="cls-48" d="M1339.6,5.4a2.49,2.49,0,0,0,2.69-.25l22.86-16.72V-15L1339.93,3.45C1339.1,4.06,1339,4.93,1339.6,5.4Z"/></g></g></g></g></svg>